G04*
G04 #@! TF.GenerationSoftware,Altium Limited,Altium Designer,21.0.9 (235)*
G04*
G04 Layer_Physical_Order=1*
G04 Layer_Color=255*
%FSLAX44Y44*%
%MOMM*%
G71*
G04*
G04 #@! TF.SameCoordinates,B8152D85-E12F-4961-801D-9DD34C180D21*
G04*
G04*
G04 #@! TF.FilePolarity,Positive*
G04*
G01*
G75*
%ADD12C,0.2500*%
%ADD19R,0.9500X1.3000*%
%ADD20R,1.6000X1.1000*%
%ADD21R,1.3000X0.9500*%
%ADD22R,0.7000X0.9000*%
%ADD23R,2.5000X3.1750*%
%ADD24R,2.6000X3.0000*%
%ADD25R,0.8500X0.3500*%
%ADD26R,1.7000X1.0500*%
%ADD27R,5.3340X2.4130*%
%ADD28R,3.2500X2.1500*%
%ADD29R,0.9500X2.1500*%
%ADD30R,5.5880X2.1082*%
%ADD31R,1.7000X3.1500*%
%ADD32R,0.9000X0.6000*%
%ADD33O,1.4500X0.6000*%
%ADD34R,0.9000X0.7000*%
%ADD35O,0.3000X1.4500*%
%ADD36O,1.4500X0.3000*%
%ADD37R,1.0500X1.7000*%
%ADD63C,0.5000*%
%ADD64C,1.0000*%
%ADD65C,0.3500*%
%ADD66C,0.7500*%
%ADD67C,1.5240*%
%ADD68R,1.5240X1.5240*%
%ADD69C,2.0000*%
%ADD70R,2.0000X2.0000*%
%ADD71C,6.0000*%
%ADD72C,0.8000*%
%ADD73C,0.6000*%
G36*
X685922Y380200D02*
X671407D01*
X663904Y387704D01*
X662663Y388532D01*
X661200Y388823D01*
X640084D01*
X624204Y404704D01*
X622963Y405532D01*
X621500Y405823D01*
X617500D01*
Y411000D01*
X603000D01*
Y393000D01*
X617500D01*
Y398177D01*
X619916D01*
X635796Y382296D01*
X637037Y381468D01*
X638500Y381177D01*
X659616D01*
X666000Y374793D01*
Y364200D01*
X672677D01*
Y354800D01*
X666000D01*
Y338800D01*
X672677D01*
Y329400D01*
X666000D01*
Y313400D01*
X672677D01*
Y304000D01*
X666000D01*
Y288000D01*
X672677D01*
Y278600D01*
X666000D01*
Y262600D01*
X672677D01*
Y253200D01*
X666000D01*
Y237200D01*
X672677D01*
Y227800D01*
X666000D01*
Y211800D01*
X672677D01*
Y202400D01*
X666000D01*
Y186400D01*
X685922D01*
Y4078D01*
X4078D01*
Y465922D01*
X685922D01*
Y380200D01*
D02*
G37*
%LPC*%
G36*
X352565Y461776D02*
Y452966D01*
X361376D01*
X361194Y454348D01*
X360170Y456819D01*
X358542Y458942D01*
X356419Y460570D01*
X353948Y461594D01*
X352565Y461776D01*
D02*
G37*
G36*
X350025Y461776D02*
X348643Y461594D01*
X346172Y460570D01*
X344049Y458942D01*
X342421Y456819D01*
X341397Y454348D01*
X341215Y452966D01*
X350025D01*
Y461776D01*
D02*
G37*
G36*
X479970Y461581D02*
Y452770D01*
X488781D01*
X488599Y454152D01*
X487575Y456624D01*
X485946Y458746D01*
X483824Y460375D01*
X481352Y461399D01*
X479970Y461581D01*
D02*
G37*
G36*
X477430Y461581D02*
X476048Y461399D01*
X473576Y460375D01*
X471454Y458746D01*
X469825Y456624D01*
X468801Y454152D01*
X468619Y452770D01*
X477430D01*
Y461581D01*
D02*
G37*
G36*
X350025Y450425D02*
X341215D01*
X341397Y449043D01*
X342421Y446572D01*
X344049Y444449D01*
X346172Y442821D01*
X348643Y441797D01*
X350025Y441615D01*
Y450425D01*
D02*
G37*
G36*
X361376D02*
X352565D01*
Y441615D01*
X353948Y441797D01*
X356419Y442821D01*
X358542Y444449D01*
X360170Y446572D01*
X361194Y449043D01*
X361376Y450425D01*
D02*
G37*
G36*
X318500Y424500D02*
X306500D01*
Y421324D01*
X302000D01*
Y423000D01*
X288001D01*
Y412000D01*
X302000D01*
Y413677D01*
X306500D01*
Y410500D01*
X318500D01*
Y424500D01*
D02*
G37*
G36*
X332500D02*
X320500D01*
Y410500D01*
X332500D01*
Y410885D01*
X333770Y411595D01*
X334803Y411167D01*
X336500Y410944D01*
X338197Y411167D01*
X339778Y411822D01*
X341136Y412864D01*
X342178Y414222D01*
X342833Y415803D01*
X343056Y417500D01*
X342833Y419197D01*
X342178Y420778D01*
X341136Y422136D01*
X339778Y423178D01*
X338197Y423833D01*
X336500Y424056D01*
X334803Y423833D01*
X333770Y423405D01*
X332500Y424115D01*
Y424500D01*
D02*
G37*
G36*
X437616Y461815D02*
X417375D01*
Y441576D01*
X426917D01*
X439842Y428651D01*
X441409Y427449D01*
X443233Y426693D01*
X445191Y426435D01*
X445191Y426435D01*
X537400D01*
X539358Y426693D01*
X541182Y427449D01*
X542749Y428651D01*
X555478Y441380D01*
X559613D01*
X572177Y428816D01*
Y419500D01*
X572468Y418037D01*
X573296Y416796D01*
X584500Y405593D01*
Y393000D01*
X599000D01*
Y411000D01*
X589907D01*
X579823Y421084D01*
Y430400D01*
X579532Y431863D01*
X578704Y433104D01*
X565020Y446787D01*
Y461620D01*
X544780D01*
Y452078D01*
X540150Y447448D01*
X539073Y448168D01*
X539360Y448858D01*
X539707Y451500D01*
X539360Y454142D01*
X538340Y456604D01*
X536718Y458718D01*
X534604Y460340D01*
X532142Y461360D01*
X529500Y461707D01*
X526858Y461360D01*
X524396Y460340D01*
X522282Y458718D01*
X520660Y456604D01*
X519641Y454142D01*
X519293Y451500D01*
X519641Y448858D01*
X520660Y446396D01*
X522282Y444282D01*
X524169Y442835D01*
X524011Y441911D01*
X523833Y441565D01*
X509767D01*
X509589Y441911D01*
X509431Y442835D01*
X511318Y444282D01*
X512940Y446396D01*
X513960Y448858D01*
X514307Y451500D01*
X513960Y454142D01*
X512940Y456604D01*
X511318Y458718D01*
X509204Y460340D01*
X506742Y461360D01*
X504100Y461707D01*
X501458Y461360D01*
X498996Y460340D01*
X496882Y458718D01*
X495260Y456604D01*
X494240Y454142D01*
X493893Y451500D01*
X494240Y448858D01*
X495260Y446396D01*
X496882Y444282D01*
X498769Y442835D01*
X498611Y441911D01*
X498433Y441565D01*
X484423D01*
X484382Y441637D01*
X484097Y442835D01*
X485946Y444254D01*
X487575Y446376D01*
X488599Y448848D01*
X488781Y450230D01*
X478700D01*
X468619D01*
X468801Y448848D01*
X469825Y446376D01*
X471454Y444254D01*
X473303Y442835D01*
X473018Y441637D01*
X472977Y441565D01*
X448324D01*
X437616Y452274D01*
Y461815D01*
D02*
G37*
G36*
X298000Y406500D02*
X283500D01*
Y388500D01*
X298000D01*
Y390885D01*
X299270Y391595D01*
X300303Y391167D01*
X302000Y390944D01*
X303697Y391167D01*
X305278Y391822D01*
X306636Y392864D01*
X307678Y394222D01*
X308333Y395803D01*
X308556Y397500D01*
X308333Y399197D01*
X307678Y400778D01*
X306636Y402136D01*
X305278Y403178D01*
X303697Y403833D01*
X302000Y404056D01*
X300303Y403833D01*
X299270Y403405D01*
X298000Y404115D01*
Y406500D01*
D02*
G37*
G36*
X242000Y432657D02*
X233500D01*
X231354Y432230D01*
X229535Y431015D01*
X228319Y429195D01*
X227893Y427049D01*
X228319Y424903D01*
X229535Y423084D01*
X231354Y421868D01*
X233500Y421442D01*
X242000D01*
X244146Y421868D01*
X245966Y423084D01*
X246044Y423201D01*
X265001D01*
Y421501D01*
X268427D01*
Y406500D01*
X265000D01*
Y388500D01*
X279500D01*
Y406500D01*
X276073D01*
Y421501D01*
X279001D01*
Y432500D01*
X265001D01*
Y430848D01*
X246077D01*
X245966Y431015D01*
X244146Y432230D01*
X242000Y432657D01*
D02*
G37*
G36*
X187500D02*
X179000D01*
X178457Y432549D01*
X144500D01*
X143525Y432355D01*
X142698Y431802D01*
X63444Y352549D01*
X31500D01*
X31254Y352500D01*
X19500D01*
Y327500D01*
X31253D01*
X31500Y327451D01*
X100000Y327451D01*
X100975Y327645D01*
X101802Y328198D01*
X157056Y383451D01*
X178450D01*
X179000Y383342D01*
X187500D01*
X189646Y383768D01*
X191465Y384984D01*
X192681Y386803D01*
X193108Y388949D01*
X192681Y391095D01*
X191465Y392915D01*
X189646Y394130D01*
X187500Y394557D01*
X186049D01*
Y396042D01*
X187500D01*
X189646Y396468D01*
X191465Y397684D01*
X192681Y399503D01*
X193108Y401649D01*
X192681Y403795D01*
X191465Y405615D01*
X189646Y406830D01*
X187500Y407257D01*
X186049D01*
Y408742D01*
X187500D01*
X189646Y409168D01*
X191465Y410384D01*
X192681Y412203D01*
X193108Y414349D01*
X192681Y416495D01*
X191465Y418315D01*
X189646Y419530D01*
X187500Y419957D01*
X186049D01*
Y421442D01*
X187500D01*
X189646Y421868D01*
X191465Y423084D01*
X192681Y424903D01*
X193108Y427049D01*
X192681Y429195D01*
X191465Y431015D01*
X189646Y432230D01*
X187500Y432657D01*
D02*
G37*
G36*
X402095Y461903D02*
X399454Y461555D01*
X396992Y460535D01*
X394878Y458913D01*
X393256Y456799D01*
X392236Y454337D01*
X391888Y451696D01*
X392236Y449054D01*
X393256Y446592D01*
X394878Y444478D01*
X396992Y442856D01*
X398272Y442325D01*
Y437905D01*
X398563Y436441D01*
X399392Y435201D01*
X446176Y388416D01*
Y359282D01*
X445922Y358000D01*
Y346500D01*
X446232Y344939D01*
X447116Y343616D01*
X448439Y342732D01*
X450000Y342422D01*
X451561Y342732D01*
X452500Y343360D01*
X453439Y342732D01*
X455000Y342422D01*
X456561Y342732D01*
X457500Y343360D01*
X458439Y342732D01*
X460000Y342422D01*
X461561Y342732D01*
X462500Y343360D01*
X463439Y342732D01*
X465000Y342422D01*
X466561Y342732D01*
X467500Y343360D01*
X468439Y342732D01*
X470000Y342422D01*
X471561Y342732D01*
X472500Y343360D01*
X473439Y342732D01*
X475000Y342422D01*
X476561Y342732D01*
X477500Y343360D01*
X478440Y342732D01*
X480000Y342422D01*
X481561Y342732D01*
X482500Y343360D01*
X483439Y342732D01*
X485000Y342422D01*
X486561Y342732D01*
X487500Y343360D01*
X488439Y342732D01*
X490000Y342422D01*
X491561Y342732D01*
X492500Y343360D01*
X493439Y342732D01*
X495000Y342422D01*
X496561Y342732D01*
X497884Y343616D01*
X498006Y343800D01*
X499727Y344089D01*
X499951Y343919D01*
Y337646D01*
X499922Y337500D01*
X500232Y335939D01*
X501116Y334616D01*
X502440Y333732D01*
X504000Y333422D01*
X515500D01*
X517061Y333732D01*
X518384Y334616D01*
X519268Y335939D01*
X519579Y337500D01*
X519549Y337649D01*
Y344944D01*
X521556Y346951D01*
X548500D01*
X549677Y345890D01*
Y327562D01*
X548407Y327131D01*
X547636Y328136D01*
X546278Y329178D01*
X544697Y329833D01*
X543000Y330056D01*
X541303Y329833D01*
X539722Y329178D01*
X538364Y328136D01*
X537741Y327323D01*
X529500D01*
X528037Y327032D01*
X526796Y326204D01*
X521916Y321324D01*
X520345D01*
X519540Y322305D01*
X519579Y322500D01*
X519268Y324061D01*
X518641Y325000D01*
X519268Y325939D01*
X519579Y327500D01*
X519268Y329061D01*
X518384Y330384D01*
X517061Y331268D01*
X515500Y331578D01*
X504000D01*
X502440Y331268D01*
X501116Y330384D01*
X500232Y329061D01*
X499922Y327500D01*
X500232Y325939D01*
X500860Y325000D01*
X500232Y324061D01*
X499922Y322500D01*
X500232Y320939D01*
X500860Y320000D01*
X500232Y319061D01*
X499922Y317500D01*
X500232Y315939D01*
X500860Y315000D01*
X500232Y314060D01*
X499922Y312500D01*
X500232Y310939D01*
X500860Y310000D01*
X500232Y309061D01*
X499922Y307500D01*
X500232Y305939D01*
X500860Y305000D01*
X500232Y304060D01*
X499922Y302500D01*
X500232Y300939D01*
X500860Y300000D01*
X500232Y299061D01*
X499922Y297500D01*
X500232Y295939D01*
X500860Y295000D01*
X500232Y294060D01*
X499922Y292500D01*
X500232Y290939D01*
X500860Y290000D01*
X500232Y289061D01*
X499922Y287500D01*
X500232Y285939D01*
X500860Y285000D01*
X500232Y284061D01*
X499922Y282500D01*
X500232Y280939D01*
X501116Y279616D01*
X502440Y278732D01*
X504000Y278421D01*
X515500D01*
X517061Y278732D01*
X518384Y279616D01*
X519268Y280939D01*
X519579Y282500D01*
X519540Y282695D01*
X520346Y283677D01*
X523916D01*
X542677Y264916D01*
Y181584D01*
X506416Y145323D01*
X458500D01*
X457037Y145032D01*
X455796Y144204D01*
X441296Y129704D01*
X440468Y128463D01*
X440177Y127000D01*
Y89500D01*
X440468Y88037D01*
X441296Y86796D01*
X461427Y66666D01*
Y26000D01*
X458000D01*
Y8000D01*
X472500D01*
Y26000D01*
X469073D01*
Y68250D01*
X468782Y69713D01*
X467954Y70954D01*
X447823Y91084D01*
Y93438D01*
X449093Y93869D01*
X449864Y92864D01*
X451222Y91822D01*
X452803Y91167D01*
X454500Y90944D01*
X456197Y91167D01*
X457230Y91595D01*
X458500Y90885D01*
Y90500D01*
X476500D01*
Y92777D01*
X482315D01*
X484250Y92392D01*
X492750D01*
X494896Y92819D01*
X496715Y94035D01*
X497931Y95854D01*
X498358Y98000D01*
X497931Y100146D01*
X496715Y101965D01*
X494896Y103181D01*
X492750Y103608D01*
X484250D01*
X482104Y103181D01*
X481793Y102973D01*
X476500D01*
Y105000D01*
X458500D01*
Y104199D01*
X458402Y104060D01*
X457230Y103405D01*
X456197Y103833D01*
X454500Y104056D01*
X452803Y103833D01*
X451222Y103178D01*
X449864Y102136D01*
X449093Y101131D01*
X447823Y101562D01*
Y125416D01*
X460084Y137677D01*
X508000D01*
X509463Y137968D01*
X510371Y138574D01*
X511181Y137588D01*
X500816Y127223D01*
X496810D01*
X496715Y127365D01*
X494896Y128581D01*
X492750Y129008D01*
X484250D01*
X482104Y128581D01*
X480285Y127365D01*
X479069Y125546D01*
X478642Y123400D01*
X479069Y121254D01*
X480285Y119435D01*
X482104Y118219D01*
X484250Y117792D01*
X492750D01*
X494896Y118219D01*
X496715Y119435D01*
X496810Y119577D01*
X502400D01*
X503863Y119868D01*
X505104Y120696D01*
X555070Y170662D01*
X556469Y170266D01*
X556544Y169951D01*
X532797Y146204D01*
X532796Y146204D01*
X504796Y118204D01*
X503968Y116963D01*
X503677Y115500D01*
Y92084D01*
X500716Y89123D01*
X496810D01*
X496715Y89265D01*
X494896Y90481D01*
X492750Y90908D01*
X484250D01*
X482104Y90481D01*
X480285Y89265D01*
X479069Y87446D01*
X478642Y85300D01*
X479069Y83154D01*
X480285Y81335D01*
X482104Y80119D01*
X484250Y79692D01*
X492750D01*
X494896Y80119D01*
X496715Y81335D01*
X496810Y81477D01*
X502300D01*
X503763Y81768D01*
X505004Y82596D01*
X510204Y87796D01*
X511032Y89037D01*
X511323Y90500D01*
Y113916D01*
X538204Y140796D01*
X538204Y140796D01*
X563704Y166296D01*
X564532Y167537D01*
X564823Y169000D01*
Y189286D01*
X566093Y189717D01*
X566364Y189364D01*
X567722Y188322D01*
X569303Y187667D01*
X571000Y187444D01*
X572697Y187667D01*
X573730Y188095D01*
X575000Y187385D01*
Y186400D01*
X596000D01*
Y202400D01*
X575000D01*
Y200615D01*
X573730Y199905D01*
X572697Y200333D01*
X571000Y200556D01*
X569303Y200333D01*
X567722Y199678D01*
X566364Y198636D01*
X566093Y198283D01*
X564823Y198714D01*
Y214786D01*
X566093Y215217D01*
X566364Y214864D01*
X567722Y213822D01*
X569303Y213167D01*
X571000Y212944D01*
X572697Y213167D01*
X573730Y213595D01*
X575000Y212885D01*
Y211800D01*
X596000D01*
Y227800D01*
X575000D01*
Y226115D01*
X573730Y225405D01*
X572697Y225833D01*
X571000Y226056D01*
X569303Y225833D01*
X567722Y225178D01*
X566364Y224136D01*
X566093Y223783D01*
X564823Y224214D01*
Y240286D01*
X566093Y240717D01*
X566364Y240364D01*
X567722Y239322D01*
X569303Y238667D01*
X571000Y238444D01*
X572697Y238667D01*
X573730Y239095D01*
X575000Y238385D01*
Y237200D01*
X596000D01*
Y253200D01*
X575000D01*
Y251615D01*
X573730Y250905D01*
X572697Y251333D01*
X571000Y251556D01*
X569303Y251333D01*
X567722Y250678D01*
X566364Y249636D01*
X566093Y249283D01*
X564823Y249714D01*
Y264678D01*
X566093Y265305D01*
X566722Y264822D01*
X568303Y264167D01*
X570000Y263944D01*
X571697Y264167D01*
X573278Y264822D01*
X573730Y265169D01*
X575000Y264543D01*
Y262600D01*
X596000D01*
Y278600D01*
X575000D01*
Y276457D01*
X573730Y275831D01*
X573278Y276178D01*
X571697Y276833D01*
X570000Y277056D01*
X568303Y276833D01*
X566722Y276178D01*
X566093Y275695D01*
X564823Y276322D01*
Y314795D01*
X566093Y315421D01*
X566222Y315322D01*
X567803Y314667D01*
X569500Y314444D01*
X571197Y314667D01*
X572778Y315322D01*
X573730Y316053D01*
X574989Y315519D01*
X575000Y315508D01*
Y313400D01*
X596000D01*
Y329400D01*
X575000D01*
Y326492D01*
X574989Y326481D01*
X573730Y325947D01*
X572778Y326678D01*
X571197Y327333D01*
X569500Y327556D01*
X567803Y327333D01*
X566222Y326678D01*
X566093Y326579D01*
X564823Y327205D01*
Y341820D01*
X566093Y342188D01*
X567222Y341322D01*
X568803Y340667D01*
X570500Y340444D01*
X572197Y340667D01*
X573778Y341322D01*
X573861Y341386D01*
X575000Y340824D01*
Y338800D01*
X596000D01*
Y354800D01*
X575000D01*
Y353176D01*
X573861Y352614D01*
X573778Y352678D01*
X572197Y353333D01*
X570500Y353556D01*
X568803Y353333D01*
X567222Y352678D01*
X566093Y351812D01*
X564823Y352180D01*
Y366820D01*
X566093Y367188D01*
X567222Y366322D01*
X568803Y365667D01*
X570500Y365444D01*
X572197Y365667D01*
X573778Y366322D01*
X573861Y366386D01*
X575000Y365824D01*
Y364200D01*
X596000D01*
Y380200D01*
X575000D01*
Y378176D01*
X573861Y377614D01*
X573778Y377678D01*
X572197Y378333D01*
X570500Y378556D01*
X568803Y378333D01*
X567222Y377678D01*
X566093Y376812D01*
X564823Y377180D01*
Y383500D01*
X564532Y384963D01*
X563704Y386204D01*
X548704Y401204D01*
X547463Y402032D01*
X546000Y402323D01*
X467000D01*
X465537Y402032D01*
X464296Y401204D01*
X454700Y391607D01*
X453223Y391926D01*
X452703Y392704D01*
X405919Y439488D01*
Y442325D01*
X407199Y442856D01*
X409313Y444478D01*
X410935Y446592D01*
X411955Y449054D01*
X412303Y451696D01*
X411955Y454337D01*
X410935Y456799D01*
X409313Y458913D01*
X407199Y460535D01*
X404737Y461555D01*
X402095Y461903D01*
D02*
G37*
G36*
X318500Y366500D02*
X306500D01*
Y363323D01*
X302000D01*
Y365000D01*
X288000D01*
Y354000D01*
X302000D01*
Y355676D01*
X306500D01*
Y352500D01*
X318500D01*
Y366500D01*
D02*
G37*
G36*
X332500D02*
X320500D01*
Y352500D01*
X332500D01*
Y353600D01*
X333639Y354162D01*
X333822Y354022D01*
X335403Y353367D01*
X337100Y353143D01*
X338797Y353367D01*
X340378Y354022D01*
X341735Y355064D01*
X342777Y356421D01*
X343432Y358003D01*
X343656Y359700D01*
X343432Y361396D01*
X342777Y362977D01*
X341735Y364335D01*
X340378Y365377D01*
X338797Y366032D01*
X337100Y366255D01*
X335403Y366032D01*
X333822Y365377D01*
X333639Y365237D01*
X332500Y365799D01*
Y366500D01*
D02*
G37*
G36*
X376696Y461903D02*
X374054Y461555D01*
X371592Y460535D01*
X369478Y458913D01*
X367856Y456799D01*
X366836Y454337D01*
X366488Y451696D01*
X366836Y449054D01*
X367856Y446592D01*
X369478Y444478D01*
X371592Y442856D01*
X372872Y442325D01*
Y375804D01*
X373163Y374341D01*
X373992Y373101D01*
X412296Y334796D01*
X413537Y333968D01*
X414385Y333799D01*
X415435Y332567D01*
X415422Y332500D01*
X415461Y332305D01*
X414655Y331323D01*
X411084D01*
X409704Y332704D01*
X408463Y333532D01*
X407000Y333823D01*
X402259D01*
X401636Y334636D01*
X400278Y335678D01*
X398697Y336333D01*
X397000Y336556D01*
X395303Y336333D01*
X393722Y335678D01*
X392364Y334636D01*
X391322Y333278D01*
X390667Y331697D01*
X390444Y330000D01*
X390667Y328303D01*
X391322Y326722D01*
X392364Y325364D01*
X393722Y324322D01*
X395303Y323667D01*
X397000Y323444D01*
X398697Y323667D01*
X400278Y324322D01*
X401636Y325364D01*
X402259Y326177D01*
X405416D01*
X406796Y324796D01*
X408037Y323968D01*
X409500Y323677D01*
X414655D01*
X415460Y322695D01*
X415422Y322500D01*
X415461Y322305D01*
X414655Y321324D01*
X394259D01*
X393636Y322136D01*
X392278Y323178D01*
X390697Y323833D01*
X389000Y324056D01*
X387303Y323833D01*
X385722Y323178D01*
X384364Y322136D01*
X383322Y320778D01*
X382667Y319197D01*
X382444Y317500D01*
X382667Y315803D01*
X383322Y314222D01*
X384364Y312864D01*
X385722Y311822D01*
X387303Y311167D01*
X389000Y310944D01*
X390075Y311085D01*
X390993Y309984D01*
X390667Y309197D01*
X390444Y307500D01*
X390667Y305803D01*
X391272Y304343D01*
X390933Y303407D01*
X390768Y303073D01*
X387000D01*
Y306500D01*
X369000D01*
Y292000D01*
X387000D01*
Y295427D01*
X411750D01*
X413213Y295718D01*
X414333Y296466D01*
X414833Y296386D01*
X415717Y296014D01*
X415732Y295939D01*
X416360Y295000D01*
X415732Y294060D01*
X415422Y292500D01*
X415732Y290939D01*
X416616Y289616D01*
X417939Y288732D01*
X419500Y288421D01*
X431000D01*
X432561Y288732D01*
X433884Y289616D01*
X434768Y290939D01*
X435078Y292500D01*
X434768Y294060D01*
X434140Y295000D01*
X434768Y295939D01*
X435078Y297500D01*
X434768Y299061D01*
X434141Y300000D01*
X434768Y300939D01*
X435078Y302500D01*
X434768Y304060D01*
X434140Y305000D01*
X434768Y305939D01*
X435078Y307500D01*
X435078Y307501D01*
X435899Y308521D01*
X437035Y308557D01*
X438078Y307515D01*
X437944Y306500D01*
X438167Y304803D01*
X438822Y303222D01*
X439864Y301864D01*
X441222Y300822D01*
X442803Y300167D01*
X444500Y299944D01*
X446197Y300167D01*
X447778Y300822D01*
X449136Y301864D01*
X450178Y303222D01*
X450833Y304803D01*
X451056Y306500D01*
X450833Y308197D01*
X450178Y309778D01*
X449136Y311136D01*
X447778Y312178D01*
X446197Y312833D01*
X444500Y313056D01*
X443485Y312922D01*
X441204Y315203D01*
X439963Y316032D01*
X438500Y316323D01*
X435845D01*
X435040Y317305D01*
X435078Y317500D01*
X435040Y317695D01*
X435845Y318677D01*
X443741D01*
X444364Y317864D01*
X445722Y316823D01*
X447303Y316168D01*
X449000Y315944D01*
X450697Y316168D01*
X452278Y316823D01*
X453635Y317864D01*
X454677Y319222D01*
X455332Y320803D01*
X455556Y322500D01*
X455332Y324197D01*
X454677Y325778D01*
X453635Y327136D01*
X452278Y328178D01*
X450697Y328833D01*
X449000Y329056D01*
X447303Y328833D01*
X445722Y328178D01*
X444364Y327136D01*
X443741Y326324D01*
X435845D01*
X435040Y327305D01*
X435078Y327500D01*
X434768Y329061D01*
X434140Y330000D01*
X434768Y330939D01*
X435078Y332500D01*
X434768Y334061D01*
X434141Y335000D01*
X434768Y335939D01*
X435078Y337500D01*
X434768Y339061D01*
X433884Y340384D01*
X433701Y340506D01*
X433411Y342227D01*
X433581Y342451D01*
X439854Y342451D01*
X440000Y342422D01*
X441561Y342732D01*
X442884Y343616D01*
X443768Y344939D01*
X444078Y346500D01*
Y358000D01*
X443768Y359561D01*
X442884Y360884D01*
X441561Y361768D01*
X440000Y362079D01*
X439851Y362049D01*
X432056D01*
X430049Y364056D01*
Y389500D01*
X429855Y390475D01*
X429302Y391302D01*
X428475Y391855D01*
X427500Y392049D01*
X417500D01*
X416525Y391855D01*
X415698Y391302D01*
X415145Y390475D01*
X414951Y389500D01*
Y355500D01*
X415145Y354524D01*
X415698Y353698D01*
X426198Y343198D01*
X426720Y342848D01*
X426373Y341578D01*
X419500D01*
X418218Y341323D01*
X416584D01*
X380519Y377388D01*
Y442325D01*
X381799Y442856D01*
X383913Y444478D01*
X385535Y446592D01*
X386555Y449054D01*
X386903Y451696D01*
X386555Y454337D01*
X385535Y456799D01*
X383913Y458913D01*
X381799Y460535D01*
X379337Y461555D01*
X376696Y461903D01*
D02*
G37*
G36*
X298000Y348500D02*
X283500D01*
Y330500D01*
X298000D01*
Y332885D01*
X299270Y333595D01*
X300303Y333167D01*
X302000Y332944D01*
X303697Y333167D01*
X305278Y333822D01*
X306636Y334864D01*
X307678Y336222D01*
X308333Y337803D01*
X308556Y339500D01*
X308333Y341197D01*
X307678Y342778D01*
X306636Y344136D01*
X305278Y345178D01*
X303697Y345833D01*
X302000Y346056D01*
X300303Y345833D01*
X299270Y345405D01*
X298000Y346115D01*
Y348500D01*
D02*
G37*
G36*
X242000Y374658D02*
X233500D01*
X231354Y374231D01*
X229535Y373015D01*
X228319Y371196D01*
X227892Y369050D01*
X228319Y366904D01*
X229535Y365085D01*
X231354Y363869D01*
X233500Y363442D01*
X242000D01*
X244146Y363869D01*
X245965Y365085D01*
X246043Y365202D01*
X265000D01*
Y363500D01*
X268427D01*
Y348500D01*
X265000D01*
Y330500D01*
X279500D01*
Y348500D01*
X276073D01*
Y363500D01*
X279000D01*
Y374500D01*
X265000D01*
Y372849D01*
X246077D01*
X245965Y373015D01*
X244146Y374231D01*
X242000Y374658D01*
D02*
G37*
G36*
X187500D02*
X179000D01*
X178453Y374549D01*
X154000D01*
X153025Y374355D01*
X152198Y373802D01*
X95944Y317549D01*
X82446D01*
X82000Y317608D01*
X81553Y317549D01*
X32446D01*
X32000Y317608D01*
X31553Y317549D01*
X31500D01*
X31396Y317528D01*
X28736Y317178D01*
X25696Y315919D01*
X23084Y313915D01*
X21081Y311304D01*
X19821Y308263D01*
X19392Y305000D01*
X19821Y301737D01*
X21081Y298696D01*
X23084Y296085D01*
X25696Y294081D01*
X28736Y292822D01*
X31400Y292471D01*
X31500Y292451D01*
X31551D01*
X32000Y292392D01*
X32448Y292451D01*
X81552D01*
X82000Y292392D01*
X82448Y292451D01*
X127000D01*
X127975Y292645D01*
X128802Y293198D01*
X161056Y325451D01*
X178454D01*
X179000Y325342D01*
X187500D01*
X189646Y325769D01*
X191466Y326985D01*
X192681Y328804D01*
X193108Y330950D01*
X192681Y333096D01*
X191466Y334915D01*
X189646Y336131D01*
X187500Y336558D01*
X186049D01*
Y338042D01*
X187500D01*
X189646Y338469D01*
X191466Y339685D01*
X192681Y341504D01*
X193108Y343650D01*
X192681Y345796D01*
X191466Y347615D01*
X189646Y348831D01*
X187500Y349258D01*
X186049D01*
Y350742D01*
X187500D01*
X189646Y351169D01*
X191466Y352385D01*
X192681Y354204D01*
X193108Y356350D01*
X192681Y358496D01*
X191466Y360315D01*
X189646Y361531D01*
X187500Y361958D01*
X186049D01*
Y363442D01*
X187500D01*
X189646Y363869D01*
X191466Y365085D01*
X192681Y366904D01*
X193108Y369050D01*
X192681Y371196D01*
X191466Y373015D01*
X189646Y374231D01*
X187500Y374658D01*
D02*
G37*
G36*
X318500Y308500D02*
X306500D01*
Y305323D01*
X302000D01*
Y307000D01*
X288000D01*
Y296000D01*
X302000D01*
Y297676D01*
X306500D01*
Y294500D01*
X318500D01*
Y308500D01*
D02*
G37*
G36*
X332500D02*
X320500D01*
Y294500D01*
X332500D01*
Y296556D01*
X333770Y296987D01*
X333864Y296864D01*
X335222Y295822D01*
X336803Y295167D01*
X338500Y294944D01*
X340197Y295167D01*
X341778Y295822D01*
X343136Y296864D01*
X344178Y298222D01*
X344833Y299803D01*
X345056Y301500D01*
X344833Y303197D01*
X344178Y304778D01*
X343136Y306136D01*
X341778Y307178D01*
X340197Y307833D01*
X338500Y308056D01*
X336803Y307833D01*
X335222Y307178D01*
X333864Y306136D01*
X333770Y306013D01*
X332500Y306444D01*
Y308500D01*
D02*
G37*
G36*
X596000Y304000D02*
X575000D01*
Y288000D01*
X596000D01*
Y292177D01*
X597264D01*
X597887Y291364D01*
X599245Y290322D01*
X600826Y289667D01*
X602523Y289444D01*
X604220Y289667D01*
X605801Y290322D01*
X607159Y291364D01*
X608200Y292722D01*
X608855Y294303D01*
X609079Y296000D01*
X608855Y297697D01*
X608200Y299278D01*
X607159Y300636D01*
X605801Y301678D01*
X604220Y302333D01*
X602523Y302556D01*
X600826Y302333D01*
X599245Y301678D01*
X597887Y300636D01*
X597264Y299823D01*
X596000D01*
Y304000D01*
D02*
G37*
G36*
X187501Y316657D02*
X179001D01*
X178455Y316549D01*
X159500D01*
X158525Y316355D01*
X157698Y315802D01*
X124444Y282549D01*
X82449D01*
X82000Y282608D01*
X81551Y282549D01*
X32449D01*
X32000Y282608D01*
X28736Y282178D01*
X25696Y280919D01*
X23084Y278915D01*
X21081Y276304D01*
X19821Y273263D01*
X19392Y270000D01*
X19821Y266737D01*
X21081Y263696D01*
X23084Y261085D01*
X25696Y259081D01*
X28736Y257822D01*
X32000Y257392D01*
X32445Y257451D01*
X81554D01*
X82000Y257392D01*
X82446Y257451D01*
X174000D01*
X174975Y257645D01*
X175802Y258198D01*
X184947Y267342D01*
X187501D01*
X189647Y267769D01*
X191466Y268984D01*
X192681Y270804D01*
X193108Y272950D01*
X192681Y275096D01*
X191466Y276915D01*
X189647Y278131D01*
X187501Y278557D01*
X186549D01*
Y280042D01*
X187501D01*
X189647Y280469D01*
X191466Y281684D01*
X192681Y283504D01*
X193108Y285650D01*
X192681Y287796D01*
X191466Y289615D01*
X189647Y290831D01*
X187501Y291257D01*
X186549D01*
Y292742D01*
X187501D01*
X189647Y293169D01*
X191466Y294384D01*
X192681Y296204D01*
X193108Y298350D01*
X192681Y300496D01*
X191466Y302315D01*
X189647Y303531D01*
X187501Y303957D01*
X186549D01*
Y305442D01*
X187501D01*
X189647Y305869D01*
X191466Y307084D01*
X192681Y308904D01*
X193108Y311050D01*
X192681Y313196D01*
X191466Y315015D01*
X189647Y316231D01*
X187501Y316657D01*
D02*
G37*
G36*
X298000Y290000D02*
X283500D01*
Y272000D01*
X298000D01*
Y274039D01*
X299270Y274888D01*
X299803Y274667D01*
X301500Y274444D01*
X303197Y274667D01*
X304778Y275322D01*
X306136Y276364D01*
X307178Y277722D01*
X307833Y279303D01*
X308056Y281000D01*
X307833Y282697D01*
X307178Y284278D01*
X306136Y285636D01*
X304778Y286678D01*
X303197Y287333D01*
X301500Y287556D01*
X299803Y287333D01*
X299270Y287112D01*
X298000Y287961D01*
Y290000D01*
D02*
G37*
G36*
X242000Y316657D02*
X233500D01*
X231354Y316231D01*
X229535Y315015D01*
X228319Y313196D01*
X227893Y311050D01*
X228319Y308904D01*
X229535Y307084D01*
X231354Y305869D01*
X233500Y305442D01*
X242000D01*
X244146Y305869D01*
X245966Y307084D01*
X246044Y307201D01*
X265000D01*
Y305500D01*
X268302D01*
Y290000D01*
X265000D01*
Y272000D01*
X279501D01*
Y290000D01*
X275949D01*
Y305500D01*
X279000D01*
Y316500D01*
X265000D01*
Y314848D01*
X246077D01*
X245966Y315015D01*
X244146Y316231D01*
X242000Y316657D01*
D02*
G37*
G36*
X82000Y247608D02*
X81552Y247549D01*
X32447D01*
X32000Y247608D01*
X28736Y247178D01*
X25696Y245919D01*
X23084Y243915D01*
X21081Y241304D01*
X19821Y238263D01*
X19392Y235000D01*
X19821Y231737D01*
X21081Y228696D01*
X23084Y226085D01*
X25696Y224081D01*
X28736Y222822D01*
X32000Y222392D01*
X32447Y222451D01*
X81553D01*
X82000Y222392D01*
X82447Y222451D01*
X89944D01*
X92698Y219698D01*
X93525Y219145D01*
X94500Y218951D01*
X226444Y218951D01*
X235698Y209698D01*
X236525Y209145D01*
X237500Y208951D01*
X301500Y208951D01*
X302174Y209085D01*
X304020D01*
Y211354D01*
X304049Y211500D01*
Y217278D01*
X307710D01*
X313127Y211861D01*
Y137500D01*
X311750D01*
Y115520D01*
X311750Y115500D01*
X311750D01*
X311750Y114250D01*
X311750D01*
Y94959D01*
X288895Y72104D01*
X287790Y70450D01*
X287402Y68499D01*
Y54612D01*
X279388Y46598D01*
X250000D01*
Y50500D01*
X235500D01*
Y32500D01*
X250000D01*
Y36402D01*
X281500D01*
X283451Y36790D01*
X285105Y37895D01*
X296105Y48895D01*
X297210Y50549D01*
X297598Y52500D01*
Y66388D01*
X318960Y87750D01*
X326250D01*
Y114250D01*
X326250D01*
X326298Y115500D01*
X327250D01*
Y137500D01*
X325872D01*
Y214500D01*
X325872Y214500D01*
X325387Y216939D01*
X324006Y219006D01*
X324006Y219006D01*
X314856Y228156D01*
X312789Y229538D01*
X310350Y230023D01*
X304049D01*
Y245000D01*
X303855Y245975D01*
X303302Y246802D01*
X302475Y247355D01*
X301500Y247549D01*
X82448Y247549D01*
X82000Y247608D01*
D02*
G37*
G36*
X431000Y286578D02*
X419500D01*
X417939Y286268D01*
X416616Y285384D01*
X415732Y284061D01*
X415422Y282500D01*
X415451Y282353D01*
Y277556D01*
X410444Y272549D01*
X392120D01*
X392000Y272565D01*
X371500D01*
X371500Y272565D01*
X369542Y272307D01*
X367718Y271551D01*
X366151Y270349D01*
X366151Y270349D01*
X352151Y256349D01*
X350949Y254782D01*
X350193Y252958D01*
X349935Y251000D01*
Y166000D01*
X350193Y164042D01*
X350949Y162218D01*
X352151Y160651D01*
X380935Y131867D01*
Y73133D01*
X375203Y67401D01*
X352049Y90556D01*
Y113000D01*
X351855Y113975D01*
X351302Y114802D01*
X350475Y115355D01*
X349500Y115549D01*
X334500D01*
X333525Y115355D01*
X332698Y114802D01*
X332145Y113975D01*
X331951Y113000D01*
Y90556D01*
X302198Y60802D01*
X301645Y59976D01*
X301451Y59000D01*
Y17500D01*
X301645Y16525D01*
X302198Y15698D01*
X303025Y15145D01*
X304000Y14951D01*
X428000Y14951D01*
X428975Y15145D01*
X429802Y15698D01*
X430282Y16415D01*
X430500D01*
Y17254D01*
X430549Y17500D01*
X430549Y51000D01*
X430500Y51246D01*
Y53165D01*
X429260D01*
X428975Y53355D01*
X428000Y53549D01*
X389056Y53549D01*
X385901Y56703D01*
X393849Y64651D01*
X395051Y66218D01*
X395807Y68042D01*
X396065Y70000D01*
X396065Y70000D01*
Y135000D01*
X395807Y136958D01*
X395051Y138782D01*
X393849Y140349D01*
X393849Y140349D01*
X365065Y169133D01*
Y247867D01*
X374633Y257435D01*
X392000D01*
X393958Y257693D01*
X394581Y257951D01*
X439853Y257951D01*
X440000Y257922D01*
X441561Y258232D01*
X442500Y258860D01*
X443439Y258232D01*
X445000Y257922D01*
X446561Y258232D01*
X447500Y258860D01*
X448439Y258232D01*
X450000Y257922D01*
X451561Y258232D01*
X452500Y258860D01*
X453439Y258232D01*
X455000Y257922D01*
X455195Y257960D01*
X456176Y257155D01*
Y212584D01*
X449416Y205823D01*
X445439D01*
Y215041D01*
X384560D01*
Y205823D01*
X382500D01*
Y208000D01*
X368500D01*
Y196000D01*
X382500D01*
Y198176D01*
X384560D01*
Y188959D01*
X445439D01*
Y198176D01*
X451000D01*
X452463Y198468D01*
X453703Y199296D01*
X462500Y208093D01*
X471297Y199296D01*
X472537Y198468D01*
X474000Y198176D01*
X479556D01*
Y188959D01*
X506177D01*
Y172500D01*
X504000D01*
Y158500D01*
X516000D01*
Y172500D01*
X513823D01*
Y188959D01*
X540435D01*
Y215041D01*
X479556D01*
Y205823D01*
X475584D01*
X468824Y212584D01*
Y257155D01*
X469805Y257960D01*
X470000Y257922D01*
X471561Y258232D01*
X472884Y259116D01*
X473768Y260439D01*
X474078Y262000D01*
Y273500D01*
X473768Y275061D01*
X472884Y276384D01*
X471561Y277268D01*
X470864Y277407D01*
X470989Y278677D01*
X473916D01*
X476177Y276416D01*
Y274782D01*
X475922Y273500D01*
Y262000D01*
X476232Y260439D01*
X477116Y259116D01*
X478439Y258232D01*
X480000Y257922D01*
X480195Y257960D01*
X481177Y257155D01*
Y243584D01*
X478515Y240922D01*
X477500Y241056D01*
X475803Y240833D01*
X474222Y240178D01*
X472864Y239136D01*
X471822Y237778D01*
X471167Y236197D01*
X470944Y234500D01*
X471167Y232803D01*
X471822Y231222D01*
X472864Y229864D01*
X474222Y228822D01*
X475803Y228167D01*
X477500Y227944D01*
X479197Y228167D01*
X480778Y228822D01*
X482136Y229864D01*
X482494Y230331D01*
X483945Y230135D01*
X484323Y229222D01*
X485364Y227864D01*
X486722Y226822D01*
X488303Y226168D01*
X490000Y225944D01*
X491697Y226168D01*
X493278Y226822D01*
X494636Y227864D01*
X495678Y229222D01*
X495813Y229548D01*
X497187D01*
X497322Y229222D01*
X498364Y227864D01*
X499722Y226822D01*
X501303Y226167D01*
X503000Y225944D01*
X504697Y226167D01*
X506278Y226822D01*
X507636Y227864D01*
X508678Y229222D01*
X509333Y230803D01*
X509556Y232500D01*
X509333Y234197D01*
X508678Y235778D01*
X507636Y237136D01*
X506823Y237759D01*
Y245000D01*
X506532Y246463D01*
X505704Y247704D01*
X498824Y254584D01*
Y260718D01*
X499078Y262000D01*
Y273500D01*
X498768Y275061D01*
X497884Y276384D01*
X496561Y277268D01*
X495000Y277578D01*
X493439Y277268D01*
X492500Y276640D01*
X491561Y277268D01*
X490000Y277578D01*
X488439Y277268D01*
X487500Y276640D01*
X486561Y277268D01*
X485000Y277578D01*
X484934Y277565D01*
X483701Y278615D01*
X483533Y279463D01*
X482704Y280703D01*
X478204Y285204D01*
X476963Y286032D01*
X475500Y286323D01*
X444500D01*
X443037Y286032D01*
X441796Y285204D01*
X437296Y280703D01*
X437172Y280518D01*
X435556Y280232D01*
X435049Y280617D01*
Y282352D01*
X435078Y282500D01*
X434768Y284061D01*
X433884Y285384D01*
X432561Y286268D01*
X431000Y286578D01*
D02*
G37*
G36*
X151950Y158524D02*
X150487Y158232D01*
X149246Y157404D01*
X148417Y156163D01*
X148126Y154700D01*
Y152300D01*
X148417Y150837D01*
X149246Y149596D01*
X150487Y148767D01*
X151950Y148476D01*
X153413Y148767D01*
X154653Y149596D01*
X155482Y150837D01*
X155773Y152300D01*
Y154700D01*
X155482Y156163D01*
X154653Y157404D01*
X153413Y158232D01*
X151950Y158524D01*
D02*
G37*
G36*
X94540Y151040D02*
X83270D01*
Y139770D01*
X94540D01*
Y151040D01*
D02*
G37*
G36*
X44540D02*
X33270D01*
Y139770D01*
X44540D01*
Y151040D01*
D02*
G37*
G36*
X80730D02*
X69460D01*
Y139770D01*
X80730D01*
Y151040D01*
D02*
G37*
G36*
X30730D02*
X19460D01*
Y139770D01*
X30730D01*
Y151040D01*
D02*
G37*
G36*
X94540Y137230D02*
X83270D01*
Y125960D01*
X94540D01*
Y137230D01*
D02*
G37*
G36*
X80730D02*
X69460D01*
Y125960D01*
X80730D01*
Y137230D01*
D02*
G37*
G36*
X44540D02*
X33270D01*
Y125960D01*
X44540D01*
Y137230D01*
D02*
G37*
G36*
X30730D02*
X19460D01*
Y125960D01*
X30730D01*
Y137230D01*
D02*
G37*
G36*
X658500Y151108D02*
X655237Y150678D01*
X652196Y149419D01*
X649585Y147415D01*
X647581Y144804D01*
X646322Y141763D01*
X645892Y138500D01*
X646322Y135237D01*
X647581Y132196D01*
X649585Y129585D01*
X652196Y127581D01*
X655237Y126322D01*
X658500Y125892D01*
X661763Y126322D01*
X664804Y127581D01*
X667415Y129585D01*
X669419Y132196D01*
X670678Y135237D01*
X671108Y138500D01*
X670678Y141763D01*
X669419Y144804D01*
X667415Y147415D01*
X664804Y149419D01*
X661763Y150678D01*
X658500Y151108D01*
D02*
G37*
G36*
X547250Y129008D02*
X538750D01*
X536604Y128581D01*
X534785Y127365D01*
X533569Y125546D01*
X533142Y123400D01*
X533569Y121254D01*
X534785Y119435D01*
X536604Y118219D01*
X538750Y117792D01*
X547250D01*
X549396Y118219D01*
X551215Y119435D01*
X552431Y121254D01*
X552858Y123400D01*
X552431Y125546D01*
X551215Y127365D01*
X549396Y128581D01*
X547250Y129008D01*
D02*
G37*
G36*
X268500Y124500D02*
X254000D01*
Y106500D01*
X268500D01*
Y109543D01*
X269770Y110169D01*
X270222Y109822D01*
X271803Y109167D01*
X273500Y108944D01*
X275197Y109167D01*
X276778Y109822D01*
X278136Y110864D01*
X279178Y112222D01*
X279833Y113803D01*
X280056Y115500D01*
X279833Y117197D01*
X279178Y118778D01*
X278136Y120136D01*
X276778Y121178D01*
X275197Y121833D01*
X273500Y122056D01*
X271803Y121833D01*
X270222Y121178D01*
X269770Y120831D01*
X268500Y121457D01*
Y124500D01*
D02*
G37*
G36*
X181950Y125506D02*
X180253Y125283D01*
X178672Y124628D01*
X177314Y123586D01*
X176272Y122228D01*
X175617Y120647D01*
X175394Y118950D01*
X175617Y117253D01*
X176272Y115672D01*
X177314Y114314D01*
X177502Y114170D01*
X177495Y112900D01*
X175200D01*
Y109064D01*
X174027Y108578D01*
X173000Y109605D01*
Y110500D01*
X172105D01*
X167302Y115302D01*
X166476Y115855D01*
X165500Y116049D01*
X82446D01*
X82000Y116108D01*
X81554Y116049D01*
X32446D01*
X32000Y116108D01*
X28737Y115678D01*
X25696Y114419D01*
X23085Y112415D01*
X21081Y109804D01*
X19822Y106763D01*
X19392Y103500D01*
X19822Y100237D01*
X21081Y97196D01*
X23085Y94585D01*
X25696Y92581D01*
X28737Y91321D01*
X32000Y90892D01*
X32449Y90951D01*
X81551D01*
X82000Y90892D01*
X82449Y90951D01*
X171000Y90951D01*
X171975Y91145D01*
X172802Y91698D01*
X174027Y92922D01*
X175200Y92436D01*
Y88474D01*
X150150D01*
X148687Y88182D01*
X147446Y87354D01*
X139296Y79204D01*
X138468Y77963D01*
X138177Y76500D01*
Y55500D01*
X133000D01*
Y41000D01*
X151000D01*
Y55500D01*
X145823D01*
Y74916D01*
X151734Y80827D01*
X175200D01*
Y72400D01*
X177677D01*
Y55500D01*
X172500D01*
Y41000D01*
X190500D01*
Y55500D01*
X185323D01*
Y72400D01*
X188700D01*
Y80400D01*
Y88400D01*
Y96400D01*
Y104400D01*
Y112900D01*
X186405D01*
X186398Y114170D01*
X186586Y114314D01*
X187628Y115672D01*
X188283Y117253D01*
X188506Y118950D01*
X188283Y120647D01*
X187628Y122228D01*
X186586Y123586D01*
X185228Y124628D01*
X183647Y125283D01*
X181950Y125506D01*
D02*
G37*
G36*
X621000Y116000D02*
X596000D01*
Y107833D01*
X583000D01*
X581342Y107503D01*
X579936Y106564D01*
X575705Y102333D01*
X550665D01*
X549396Y103181D01*
X547250Y103608D01*
X538750D01*
X536604Y103181D01*
X535335Y102333D01*
X533500D01*
X531842Y102003D01*
X530436Y101064D01*
X525436Y96064D01*
X524497Y94658D01*
X524167Y93000D01*
Y71000D01*
X519500D01*
Y56500D01*
X537500D01*
Y71000D01*
X532833D01*
Y81969D01*
X534103Y82355D01*
X534785Y81335D01*
X536604Y80119D01*
X538750Y79692D01*
X547250D01*
X549396Y80119D01*
X551215Y81335D01*
X552431Y83154D01*
X552858Y85300D01*
X552431Y87446D01*
X551215Y89265D01*
X549396Y90481D01*
X547250Y90908D01*
X538750D01*
X536604Y90481D01*
X534785Y89265D01*
X534103Y88245D01*
X532833Y88631D01*
Y91205D01*
X535295Y93667D01*
X535335D01*
X536604Y92819D01*
X538750Y92392D01*
X547250D01*
X549396Y92819D01*
X550665Y93667D01*
X577500D01*
X579158Y93997D01*
X580564Y94936D01*
X584795Y99167D01*
X596000D01*
Y91000D01*
X621000D01*
Y116000D01*
D02*
G37*
G36*
X231950Y170550D02*
X209950D01*
Y134050D01*
X211345D01*
X227451Y117944D01*
Y112900D01*
X214700D01*
Y104400D01*
Y96400D01*
X216143D01*
X216525Y96145D01*
X217500Y95951D01*
X238000D01*
X238976Y96145D01*
X239802Y96698D01*
X249302Y106198D01*
X249505Y106500D01*
X250000D01*
Y107754D01*
X250049Y108000D01*
Y124944D01*
X260306Y135201D01*
X301500D01*
X302475Y135395D01*
X303302Y135948D01*
X303795Y136685D01*
X304020D01*
Y137605D01*
X304049Y137750D01*
Y168000D01*
X303855Y168975D01*
X303302Y169802D01*
X302475Y170355D01*
X301500Y170549D01*
X231950Y170549D01*
Y170550D01*
D02*
G37*
G36*
X671000Y116000D02*
X646000D01*
Y91000D01*
X671000D01*
Y116000D01*
D02*
G37*
G36*
X245000Y94000D02*
X230500D01*
Y88474D01*
X228200D01*
Y88900D01*
X214700D01*
Y80400D01*
Y72400D01*
X218197D01*
X218468Y71037D01*
X218646Y70770D01*
X217967Y69500D01*
X217000D01*
Y51500D01*
X217000D01*
Y50500D01*
X217000D01*
Y32500D01*
X231500D01*
Y50500D01*
X231500D01*
Y51500D01*
X231500D01*
Y69500D01*
X228323D01*
Y70000D01*
X228099Y71130D01*
X228200Y72400D01*
X228200Y72400D01*
X228200Y72400D01*
Y80827D01*
X230500D01*
Y76000D01*
X245000D01*
Y94000D01*
D02*
G37*
G36*
X263500D02*
X249000D01*
Y76000D01*
X263500D01*
Y81177D01*
X265500D01*
Y77750D01*
X283500D01*
Y92250D01*
X265500D01*
Y88823D01*
X263500D01*
Y94000D01*
D02*
G37*
G36*
X608500Y151108D02*
X605237Y150678D01*
X602196Y149419D01*
X599585Y147415D01*
X597581Y144804D01*
X596765Y142833D01*
X587000D01*
X585342Y142503D01*
X583936Y141564D01*
X557405Y115033D01*
X550665D01*
X549396Y115881D01*
X547250Y116308D01*
X538750D01*
X536604Y115881D01*
X534785Y114665D01*
X533569Y112846D01*
X533142Y110700D01*
X533569Y108554D01*
X534785Y106735D01*
X536604Y105519D01*
X538750Y105092D01*
X547250D01*
X549396Y105519D01*
X550665Y106367D01*
X559200D01*
X560858Y106697D01*
X562264Y107636D01*
X588795Y134167D01*
X596765D01*
X597581Y132196D01*
X599585Y129585D01*
X602196Y127581D01*
X605237Y126322D01*
X608500Y125892D01*
X611763Y126322D01*
X613734Y127138D01*
X626167Y114705D01*
Y76795D01*
X605705Y56333D01*
X594420D01*
Y62120D01*
X574180D01*
Y41880D01*
X594420D01*
Y47667D01*
X607500D01*
X609158Y47997D01*
X610564Y48936D01*
X633564Y71936D01*
X634503Y73342D01*
X634833Y75000D01*
Y116500D01*
X634503Y118158D01*
X633564Y119564D01*
X619862Y133266D01*
X620678Y135237D01*
X621108Y138500D01*
X620678Y141763D01*
X619419Y144804D01*
X617415Y147415D01*
X614804Y149419D01*
X611763Y150678D01*
X608500Y151108D01*
D02*
G37*
G36*
X558900Y62207D02*
X556258Y61859D01*
X553796Y60840D01*
X551682Y59218D01*
X550060Y57104D01*
X549741Y56333D01*
X545500D01*
X543842Y56003D01*
X542436Y55064D01*
X538673Y51301D01*
X537500Y51788D01*
Y52500D01*
X519500D01*
Y38000D01*
X537500D01*
Y41042D01*
X538875D01*
X540533Y41372D01*
X541939Y42311D01*
X547295Y47667D01*
X549741D01*
X550060Y46896D01*
X551682Y44782D01*
X553796Y43160D01*
X556258Y42140D01*
X558900Y41793D01*
X561542Y42140D01*
X564004Y43160D01*
X566118Y44782D01*
X567740Y46896D01*
X568759Y49358D01*
X569107Y52000D01*
X568759Y54642D01*
X567740Y57104D01*
X566118Y59218D01*
X564004Y60840D01*
X561542Y61859D01*
X558900Y62207D01*
D02*
G37*
G36*
X491000Y26000D02*
X476500D01*
Y8000D01*
X491000D01*
Y13177D01*
X498000D01*
Y10000D01*
X510000D01*
Y24000D01*
X498000D01*
Y20823D01*
X491000D01*
Y26000D01*
D02*
G37*
%LPD*%
G36*
X183500Y386000D02*
X156000D01*
X100000Y330000D01*
X31500Y330000D01*
Y350000D01*
X64500D01*
X144500Y430000D01*
X183500D01*
Y386000D01*
D02*
G37*
G36*
X549677Y377416D02*
Y362610D01*
X548500Y361549D01*
X510500D01*
X509525Y361355D01*
X508698Y360802D01*
X500698Y352802D01*
X500348Y352280D01*
X499078Y352627D01*
Y358000D01*
X498768Y359561D01*
X497884Y360884D01*
X496561Y361768D01*
X495000Y362079D01*
X493439Y361768D01*
X492500Y361141D01*
X491561Y361768D01*
X490000Y362079D01*
X488439Y361768D01*
X487500Y361141D01*
X486561Y361768D01*
X485000Y362079D01*
X483439Y361768D01*
X482500Y361141D01*
X481561Y361768D01*
X480000Y362079D01*
X478440Y361768D01*
X477500Y361141D01*
X476561Y361768D01*
X475235Y362032D01*
X474856Y362730D01*
X474726Y363319D01*
X476485Y365078D01*
X477500Y364944D01*
X479197Y365167D01*
X480778Y365822D01*
X482136Y366864D01*
X483178Y368222D01*
X483833Y369803D01*
X484056Y371500D01*
X483833Y373197D01*
X483178Y374778D01*
X482136Y376136D01*
X480778Y377178D01*
X480347Y377356D01*
X479933Y378903D01*
X480178Y379222D01*
X480833Y380803D01*
X481056Y382500D01*
X480833Y384197D01*
X480332Y385406D01*
X480938Y386677D01*
X540416D01*
X549677Y377416D01*
D02*
G37*
G36*
X548500Y349500D02*
X520500D01*
X517000Y346000D01*
Y337500D01*
X502500D01*
Y351000D01*
X510500Y359000D01*
X548500D01*
Y349500D01*
D02*
G37*
G36*
X549677Y319438D02*
Y270527D01*
X548407Y270001D01*
X528204Y290204D01*
X526963Y291033D01*
X525500Y291324D01*
X520346D01*
X519540Y292305D01*
X519579Y292500D01*
X519268Y294060D01*
X518641Y295000D01*
X519268Y295939D01*
X519579Y297500D01*
X519268Y299061D01*
X518641Y300000D01*
X519268Y300939D01*
X519579Y302500D01*
X519540Y302695D01*
X519657Y302838D01*
X520709Y303384D01*
X526296Y297796D01*
X527537Y296968D01*
X529000Y296677D01*
X532741D01*
X533364Y295864D01*
X534722Y294822D01*
X536303Y294167D01*
X538000Y293944D01*
X539697Y294167D01*
X541278Y294822D01*
X542636Y295864D01*
X543678Y297222D01*
X544333Y298803D01*
X544556Y300500D01*
X544333Y302197D01*
X543678Y303778D01*
X542636Y305136D01*
X541278Y306178D01*
X540464Y306515D01*
X540205Y307580D01*
X540230Y307987D01*
X541177Y309222D01*
X541832Y310803D01*
X542056Y312500D01*
X541832Y314197D01*
X541177Y315778D01*
X541030Y315970D01*
X541758Y317107D01*
X543000Y316944D01*
X544697Y317167D01*
X546278Y317822D01*
X547636Y318864D01*
X548407Y319869D01*
X549677Y319438D01*
D02*
G37*
G36*
X427500Y363000D02*
X431000Y359500D01*
X440000D01*
Y345000D01*
X428000Y345000D01*
X417500Y355500D01*
Y389500D01*
X427500D01*
Y363000D01*
D02*
G37*
G36*
X183500Y328000D02*
X160000D01*
X127000Y295000D01*
X31500D01*
Y315000D01*
X97000D01*
X154000Y372000D01*
X183500D01*
Y328000D01*
D02*
G37*
G36*
X184000Y270000D02*
X174000Y260000D01*
X32000D01*
Y280000D01*
X125500D01*
X159500Y314000D01*
X184000D01*
Y270000D01*
D02*
G37*
G36*
X301500Y211500D02*
X237500Y211500D01*
X227500Y221500D01*
X94500Y221500D01*
X91000Y225000D01*
X32000D01*
X31999Y245000D01*
X301500Y245000D01*
X301500Y211500D01*
D02*
G37*
G36*
X432500Y278500D02*
X436000Y275000D01*
X440000D01*
X440000Y260500D01*
X387000Y260500D01*
X387000Y270000D01*
X411500D01*
X418000Y276500D01*
Y282500D01*
X432500D01*
Y278500D01*
D02*
G37*
G36*
X349500Y89500D02*
X380000Y59000D01*
X388000Y51000D01*
X428000Y51000D01*
X428000Y17500D01*
X304000Y17500D01*
Y59000D01*
X334500Y89500D01*
Y113000D01*
X349500D01*
Y89500D01*
D02*
G37*
G36*
X176500Y102500D02*
X186000D01*
Y99000D01*
X176500Y99000D01*
X171000Y93500D01*
X32000Y93500D01*
Y113500D01*
X165500D01*
X176500Y102500D01*
D02*
G37*
G36*
X301500Y168000D02*
Y137750D01*
X259250D01*
X247500Y126000D01*
Y108000D01*
X238000Y98500D01*
X217500D01*
Y102500D01*
X227000D01*
X230000Y105500D01*
Y119000D01*
X212500Y136500D01*
Y168000D01*
X301500Y168000D01*
D02*
G37*
D12*
X440000Y267750D02*
Y278000D01*
X444500Y282500D02*
X475500D01*
X440000Y278000D02*
X444500Y282500D01*
X475500D02*
X480000Y278000D01*
Y267750D02*
Y278000D01*
X576000Y419500D02*
Y430400D01*
X554900Y451500D02*
X576000Y430400D01*
Y419500D02*
X591750Y403750D01*
Y402000D02*
Y403750D01*
X397000Y330000D02*
X407000D01*
X509750Y312500D02*
X535500D01*
X376696Y375804D02*
Y451696D01*
Y375804D02*
X415000Y337500D01*
X450000Y352250D02*
Y390000D01*
X402095Y437905D02*
X450000Y390000D01*
X402095Y437905D02*
Y451696D01*
X465250Y17000D02*
Y68250D01*
X444000Y89500D02*
X465250Y68250D01*
X444000Y89500D02*
Y127000D01*
X458500Y141500D01*
X508000D01*
X546500Y180000D01*
Y266500D01*
X610250Y402000D02*
X621500D01*
X638500Y385000D01*
X661200D01*
X674000Y372200D01*
X676500D01*
Y346800D02*
Y372200D01*
Y321400D02*
Y346800D01*
Y296000D02*
Y321400D01*
Y270600D02*
Y296000D01*
Y245200D02*
Y270600D01*
Y219800D02*
Y245200D01*
Y194400D02*
Y219800D01*
X571000Y245000D02*
X585300D01*
X585500Y245200D01*
X571000Y219500D02*
X585200D01*
X585500Y219800D01*
X571000Y194000D02*
X585100D01*
X585500Y194400D01*
X438500Y312500D02*
X444500Y306500D01*
X585400Y270500D02*
X585500Y270600D01*
X570000Y270500D02*
X585400D01*
X585500Y296000D02*
X602523D01*
X509750Y287500D02*
X509750Y287500D01*
X525500D02*
X546500Y266500D01*
X509750Y287500D02*
X525500D01*
X409500Y327500D02*
X425250D01*
X407000Y330000D02*
X409500Y327500D01*
X449000Y322500D02*
X449000Y322500D01*
X425250Y322500D02*
X449000D01*
X389000Y317500D02*
X425250D01*
X389000Y317500D02*
X389000Y317500D01*
X425250Y312500D02*
X438500D01*
X397000Y307500D02*
X397000Y307500D01*
X425250D02*
X425250Y307500D01*
X397000Y307500D02*
X425250D01*
X378000Y299250D02*
X411750D01*
X414904Y302404D02*
X425154D01*
X411750Y299250D02*
X414904Y302404D01*
X425154D02*
X425250Y302500D01*
X570500Y372000D02*
X585300D01*
X585500Y372200D01*
X570500Y347000D02*
X585300D01*
X585500Y346800D01*
X569500Y321000D02*
X585100D01*
X585500Y321400D01*
X535500Y143500D02*
X561000Y169000D01*
X546000Y398500D02*
X561000Y383500D01*
Y169000D02*
Y383500D01*
X523500Y317500D02*
X529500Y323500D01*
X543000D01*
X509750Y317500D02*
X523500D01*
X522000Y307500D02*
X529000Y300500D01*
X538000D01*
X509750Y307500D02*
X522000D01*
X502400Y123400D02*
X553500Y174500D01*
Y379000D01*
X542000Y390500D02*
X553500Y379000D01*
X535500Y143500D02*
X535500D01*
X488500Y123400D02*
X502400D01*
X510000Y165500D02*
Y201996D01*
X509996Y202000D02*
X510000Y201996D01*
X376000Y451000D02*
X376696Y451696D01*
X256250Y85000D02*
X274500D01*
X237400Y84650D02*
X237750Y85000D01*
X221450Y84650D02*
X237400D01*
X224250Y41500D02*
Y60500D01*
X224500Y60750D02*
Y70000D01*
X222000Y72500D02*
X224500Y70000D01*
X224250Y60500D02*
X224500Y60750D01*
X222000Y72500D02*
Y76150D01*
X221450Y76649D02*
X221500D01*
X222000Y76150D01*
X142000Y76500D02*
X150150Y84650D01*
X142000Y48250D02*
Y76500D01*
X150150Y84650D02*
X181950D01*
X181500Y76199D02*
X181950Y76649D01*
X181500Y48250D02*
Y76199D01*
X504000Y17000D02*
X504000Y17000D01*
X483750Y17000D02*
X504000D01*
X326500Y417500D02*
X336500D01*
X326500Y359500D02*
X326699Y359700D01*
X337100D01*
X326500Y301500D02*
X338500D01*
X326500Y301500D02*
X326500Y301500D01*
X295000Y301500D02*
X312500D01*
X312500Y301500D01*
X312500Y359500D02*
X312500Y359500D01*
X295000Y359500D02*
X312500D01*
X312500Y417500D02*
X312500Y417500D01*
X295000Y417500D02*
X312500D01*
X237775Y427025D02*
X271976D01*
X272001Y427001D01*
X237750Y427049D02*
X237775Y427025D01*
X272001Y427001D02*
X272250Y426751D01*
Y397500D02*
Y426751D01*
X237775Y369025D02*
X271975D01*
X237750Y369050D02*
X237775Y369025D01*
X271975D02*
X272000Y369000D01*
X272250Y368750D01*
Y339500D02*
Y368750D01*
X237775Y311025D02*
X271975D01*
X272000Y311000D01*
X237750Y311050D02*
X237775Y311025D01*
X272125Y281125D02*
Y310875D01*
X507500Y115500D02*
X535500Y143500D01*
X507500Y90500D02*
Y115500D01*
X502300Y85300D02*
X507500Y90500D01*
X488500Y85300D02*
X502300D01*
X467000Y398500D02*
X546000D01*
X455000Y386500D02*
X467000Y398500D01*
X455000Y352250D02*
Y386500D01*
X460000Y352250D02*
Y380500D01*
X465000Y373000D02*
X474500Y382500D01*
X465000Y352250D02*
Y373000D01*
X460000Y380500D02*
X470000Y390500D01*
X542000D01*
X503000Y232500D02*
Y245000D01*
X495000Y253000D02*
X503000Y245000D01*
X495000Y253000D02*
Y267750D01*
X490000Y232500D02*
Y267750D01*
X490000Y232500D02*
X490000Y232500D01*
X477500Y234500D02*
X485000Y242000D01*
X477500Y234500D02*
Y234500D01*
X485000Y242000D02*
Y267750D01*
X470000Y364000D02*
X477500Y371500D01*
X470000Y352250D02*
Y364000D01*
X415000Y337500D02*
X425250D01*
X450000Y352250D02*
X450095Y352346D01*
X402095Y451696D02*
X402400Y452000D01*
X509996Y202000D02*
X509996Y202000D01*
X375500Y202000D02*
X415000D01*
X415000Y202000D01*
X451000D01*
X460000Y211000D02*
Y267750D01*
X451000Y202000D02*
X460000Y211000D01*
X474000Y202000D02*
X509996D01*
X509995Y202000D02*
X509996Y202000D01*
X465000Y211000D02*
X474000Y202000D01*
X465000Y211000D02*
Y267750D01*
X181950Y118950D02*
X182000Y119000D01*
X151950Y152300D02*
Y154700D01*
D19*
X610250Y402000D02*
D03*
X591750D02*
D03*
X242750Y115500D02*
D03*
X261250D02*
D03*
X290750Y281000D02*
D03*
X272250D02*
D03*
X272250Y339500D02*
D03*
X290750D02*
D03*
X272250Y397500D02*
D03*
X290750D02*
D03*
X237750Y85000D02*
D03*
X256250D02*
D03*
X465250Y17000D02*
D03*
X483750D02*
D03*
X242750Y41500D02*
D03*
X224250D02*
D03*
X242750Y60500D02*
D03*
X224250D02*
D03*
X441000Y373000D02*
D03*
X422500D02*
D03*
D20*
X585500Y372200D02*
D03*
Y346800D02*
D03*
Y321400D02*
D03*
Y296000D02*
D03*
Y270600D02*
D03*
Y245200D02*
D03*
Y219800D02*
D03*
Y194400D02*
D03*
X676500Y372200D02*
D03*
Y346800D02*
D03*
Y321400D02*
D03*
Y296000D02*
D03*
Y270600D02*
D03*
Y245200D02*
D03*
Y219800D02*
D03*
Y194400D02*
D03*
D21*
X467500Y116250D02*
D03*
Y97750D02*
D03*
X378000Y299250D02*
D03*
Y280750D02*
D03*
X181500Y48250D02*
D03*
Y29750D02*
D03*
X142000Y48250D02*
D03*
Y29750D02*
D03*
X274500Y85000D02*
D03*
Y66500D02*
D03*
X405000Y265250D02*
D03*
Y283750D02*
D03*
X530500Y354250D02*
D03*
Y335750D02*
D03*
X528500Y45250D02*
D03*
Y63750D02*
D03*
D22*
X518000Y17000D02*
D03*
X504000D02*
D03*
X312500Y301500D02*
D03*
X326500D02*
D03*
Y359500D02*
D03*
X312500D02*
D03*
X326500Y417500D02*
D03*
X312500D02*
D03*
X496000Y165500D02*
D03*
X510000D02*
D03*
D23*
X415500Y34790D02*
D03*
Y93210D02*
D03*
D24*
X201700Y92650D02*
D03*
D25*
X221450Y76649D02*
D03*
Y84650D02*
D03*
Y92650D02*
D03*
Y100650D02*
D03*
Y108650D02*
D03*
X181950Y76649D02*
D03*
Y84650D02*
D03*
Y92650D02*
D03*
Y100650D02*
D03*
Y108650D02*
D03*
D26*
X162000Y102750D02*
D03*
Y73250D02*
D03*
X164500Y228750D02*
D03*
Y199250D02*
D03*
X218500Y229000D02*
D03*
Y199500D02*
D03*
X192000Y229000D02*
D03*
Y199500D02*
D03*
D27*
X274850Y223650D02*
D03*
Y151250D02*
D03*
D28*
X342001Y43000D02*
D03*
D29*
X319000Y101000D02*
D03*
X342001D02*
D03*
X365001D02*
D03*
D30*
X415000Y202000D02*
D03*
X509996D02*
D03*
D31*
X151950Y152300D02*
D03*
X220950D02*
D03*
D32*
X272000Y311000D02*
D03*
X295000Y320500D02*
D03*
Y301500D02*
D03*
X272001Y427001D02*
D03*
X295000Y436500D02*
D03*
Y417500D02*
D03*
X272000Y369000D02*
D03*
X295000Y378500D02*
D03*
Y359500D02*
D03*
D33*
X237750Y388949D02*
D03*
Y401649D02*
D03*
Y414349D02*
D03*
Y427049D02*
D03*
X183250Y388949D02*
D03*
Y401649D02*
D03*
Y414349D02*
D03*
Y427049D02*
D03*
X543000Y85300D02*
D03*
Y98000D02*
D03*
Y110700D02*
D03*
Y123400D02*
D03*
X488500Y85300D02*
D03*
Y98000D02*
D03*
Y110700D02*
D03*
Y123400D02*
D03*
X237750Y272950D02*
D03*
Y285650D02*
D03*
Y298350D02*
D03*
Y311050D02*
D03*
X183251Y272950D02*
D03*
Y285650D02*
D03*
Y298350D02*
D03*
Y311050D02*
D03*
X237750Y330950D02*
D03*
Y343650D02*
D03*
Y356350D02*
D03*
Y369050D02*
D03*
X183250Y330950D02*
D03*
Y343650D02*
D03*
Y356350D02*
D03*
Y369050D02*
D03*
D34*
X375500Y188000D02*
D03*
Y202000D02*
D03*
D35*
X440000Y267750D02*
D03*
X445000Y267750D02*
D03*
X450000Y267750D02*
D03*
X455000D02*
D03*
X460000D02*
D03*
X465000D02*
D03*
X470000D02*
D03*
X475000D02*
D03*
X480000D02*
D03*
X485000D02*
D03*
X490000D02*
D03*
X495000D02*
D03*
Y352250D02*
D03*
X490000D02*
D03*
X485000D02*
D03*
X480000D02*
D03*
X475000D02*
D03*
X470000D02*
D03*
X465000D02*
D03*
X460000D02*
D03*
X455000D02*
D03*
X450000D02*
D03*
X445000D02*
D03*
X440000D02*
D03*
D36*
X509750Y282500D02*
D03*
Y287500D02*
D03*
X509750Y292500D02*
D03*
Y297500D02*
D03*
Y302500D02*
D03*
Y307500D02*
D03*
X509750Y312500D02*
D03*
Y317500D02*
D03*
X509750Y322500D02*
D03*
X509750Y327500D02*
D03*
Y332500D02*
D03*
Y337500D02*
D03*
X425250D02*
D03*
Y332500D02*
D03*
Y327500D02*
D03*
Y322500D02*
D03*
Y317500D02*
D03*
Y312500D02*
D03*
Y307500D02*
D03*
Y302500D02*
D03*
Y297500D02*
D03*
Y292500D02*
D03*
Y287500D02*
D03*
Y282500D02*
D03*
D37*
X319500Y126500D02*
D03*
X349000D02*
D03*
D63*
X467625Y97875D02*
X467750Y98000D01*
X467500Y97750D02*
X467625Y97875D01*
X488375D01*
X488500Y98000D01*
X454750Y97750D02*
X467500D01*
X290750Y281000D02*
X290751Y281000D01*
X301500D01*
X301500Y281000D01*
X290750Y339500D02*
X302000D01*
X290750Y397500D02*
X302000D01*
X242750Y41500D02*
X281500D01*
X292500Y52500D02*
Y68499D01*
X281500Y41500D02*
X292500Y52500D01*
Y68499D02*
X319000Y95000D01*
Y101000D01*
X319250Y101250D01*
Y126250D02*
X319500Y126500D01*
D64*
X371500Y39500D02*
Y53000D01*
X388500Y70000D01*
Y135000D01*
X357500Y166000D02*
X388500Y135000D01*
X357500Y166000D02*
Y251000D01*
X371500Y265000D01*
X392000D01*
X537400Y434000D02*
X554900Y451500D01*
X427495Y451696D02*
X445191Y434000D01*
X537400D01*
D65*
X454500Y97500D02*
X454750Y97750D01*
X272125Y281125D02*
X272250Y281000D01*
X272000Y311000D02*
X272125Y310875D01*
X630500Y75000D02*
Y116500D01*
X608500Y138500D02*
X630500Y116500D01*
X607500Y52000D02*
X630500Y75000D01*
X584300Y52000D02*
X607500D01*
X545500D02*
X558900D01*
X538875Y45375D02*
X545500Y52000D01*
X528625Y45375D02*
X538875D01*
X528500Y45250D02*
X528625Y45375D01*
X533500Y98000D02*
X577500D01*
X528500Y93000D02*
X533500Y98000D01*
X528500Y63750D02*
Y93000D01*
X577500Y98000D02*
X583000Y103500D01*
X608500D01*
X559200Y110700D02*
X587000Y138500D01*
X608500D01*
X543000Y110700D02*
X559200D01*
X261250Y115500D02*
X273500D01*
X181950Y108650D02*
Y118950D01*
D66*
X310350Y223650D02*
X319500Y214500D01*
Y126500D02*
Y214500D01*
X319250Y101250D02*
Y126250D01*
X274850Y223650D02*
X310350D01*
D67*
X504100Y451500D02*
D03*
X529500D02*
D03*
X478700D02*
D03*
X558900Y52000D02*
D03*
X351296Y451696D02*
D03*
X402095D02*
D03*
X376696D02*
D03*
D68*
X554900Y451500D02*
D03*
X584300Y52000D02*
D03*
X427495Y451696D02*
D03*
D69*
X608500Y138500D02*
D03*
X658500D02*
D03*
X32000Y103500D02*
D03*
X82000D02*
D03*
X32000Y270000D02*
D03*
Y305000D02*
D03*
X82000D02*
D03*
Y270000D02*
D03*
Y235000D02*
D03*
X32000D02*
D03*
D70*
X608500Y103500D02*
D03*
X658500D02*
D03*
X32000Y138500D02*
D03*
X82000D02*
D03*
X32000Y340000D02*
D03*
X82000D02*
D03*
D71*
X35000Y435000D02*
D03*
X655000D02*
D03*
X35000Y35000D02*
D03*
X655000D02*
D03*
D72*
X397000Y330000D02*
D03*
X535500Y312500D02*
D03*
X571000Y194000D02*
D03*
X444500Y306500D02*
D03*
X571000Y219500D02*
D03*
Y245000D02*
D03*
X570000Y270500D02*
D03*
X602523Y296000D02*
D03*
X449000Y322500D02*
D03*
X389000Y317500D02*
D03*
X397000Y307500D02*
D03*
X392000Y265000D02*
D03*
X570500Y372000D02*
D03*
Y347000D02*
D03*
X569500Y321000D02*
D03*
X543000Y323500D02*
D03*
X538000Y300500D02*
D03*
X454500Y97500D02*
D03*
X474500Y382500D02*
D03*
X477500Y371500D02*
D03*
X337100Y359700D02*
D03*
X336500Y417500D02*
D03*
X338500Y301500D02*
D03*
X503000Y232500D02*
D03*
X490000Y232500D02*
D03*
X477500Y234500D02*
D03*
X475000Y254000D02*
D03*
X529500Y17000D02*
D03*
X302000Y397500D02*
D03*
Y339500D02*
D03*
X301500Y281000D02*
D03*
X294500Y240000D02*
D03*
X265700D02*
D03*
X150500D02*
D03*
X236900D02*
D03*
X208100D02*
D03*
X179300D02*
D03*
X486000Y165500D02*
D03*
X375500Y178500D02*
D03*
X543000Y336500D02*
D03*
X543500Y354500D02*
D03*
X440000Y385500D02*
D03*
X422500Y385000D02*
D03*
X392000Y284000D02*
D03*
X455000Y116000D02*
D03*
X274500Y56500D02*
D03*
X342500Y25000D02*
D03*
X312500Y39500D02*
D03*
Y25500D02*
D03*
X328000D02*
D03*
X356500D02*
D03*
X371500D02*
D03*
Y39500D02*
D03*
X406500Y114500D02*
D03*
X415500D02*
D03*
X424000D02*
D03*
X361500Y129000D02*
D03*
Y118500D02*
D03*
X181500Y19500D02*
D03*
X142000Y19000D02*
D03*
X253500Y60500D02*
D03*
X304500Y320500D02*
D03*
Y378500D02*
D03*
Y436500D02*
D03*
X225001Y272799D02*
D03*
Y285799D02*
D03*
Y298299D02*
D03*
X225000Y330799D02*
D03*
Y343800D02*
D03*
Y356300D02*
D03*
X225001Y388799D02*
D03*
Y401799D02*
D03*
Y414299D02*
D03*
X250500Y298500D02*
D03*
Y285500D02*
D03*
Y273000D02*
D03*
X250500Y356501D02*
D03*
Y343501D02*
D03*
Y331001D02*
D03*
X250500Y389000D02*
D03*
Y401500D02*
D03*
Y414500D02*
D03*
X273500Y115500D02*
D03*
X181950Y118950D02*
D03*
X157500Y62500D02*
D03*
X166500D02*
D03*
X213000Y189500D02*
D03*
X197500Y189000D02*
D03*
X186500Y189500D02*
D03*
X170500Y189000D02*
D03*
X159000D02*
D03*
X224000D02*
D03*
X136900Y161450D02*
D03*
Y151450D02*
D03*
Y140950D02*
D03*
D73*
X201950Y81650D02*
D03*
X210450D02*
D03*
X192950D02*
D03*
X201950Y92650D02*
D03*
X210450Y92651D02*
D03*
X192950Y92650D02*
D03*
Y103650D02*
D03*
X210450D02*
D03*
X201950D02*
D03*
M02*
