M48
;Layer_Color=9474304
;FILE_FORMAT=4:4
METRIC,TZ
;TYPE=PLATED
T1F00S00C0.3000
T2F00S00C0.4000
T3F00S00C1.0160
T4F00S00C1.1000
T5F00S00C3.4000
T6F00S00C3.6000
%
T01
X192950Y81650
X201950
X210450
Y92651
X201950Y92650
X192950
Y103650
X201950
X210450
T02
X142000Y19000
X181500Y19500
X166500Y62500
X157500
X253500Y60500
X274500Y56500
X312500Y39500
Y25500
X328000
X342500Y25000
X356500Y25500
X371500
Y39500
X454500Y97500
X529500Y17000
X455000Y116000
X424000Y114500
X415500
X406500
X486000Y165500
X490000Y232500
X503000Y232500
X477500Y234500
X475000Y254000
X444500Y306500
X449000Y322500
X397000Y330000
X389000Y317500
X397000Y307500
X392000Y284000
Y265000
X422500Y385000
X440000Y385500
X474500Y382500
X477500Y371500
X543500Y354500
X543000Y336500
Y323500
X535500Y312500
X538000Y300500
X569500Y321000
X570500Y347000
Y372000
X570000Y270500
X571000Y245000
Y219500
Y194000
X602523Y296000
X338500Y301500
X304500Y320500
X302000Y339500
X304500Y378500
X302000Y397500
X304500Y436500
X336500Y417500
X337100Y359700
X250500Y356501
Y343501
Y331001
X225000Y330799
Y343800
Y356300
X225001Y388799
Y401799
Y414299
X250500Y414500
Y401500
Y389000
X250500Y298500
Y285500
Y273000
X225001Y272799
Y285799
Y298299
X236900Y240000
X265700
X294500
X301500Y281000
X208100Y240000
X179300
X150500
X159000Y189000
X170500
X186500Y189500
X197500Y189000
X213000Y189500
X224000Y189000
X181950Y118950
X136900Y140950
Y151450
Y161450
X273500Y115500
X361500Y118500
Y129000
X375500Y178500
T03
X558900Y52000
X584300
X554900Y451500
X529500
X504100
X478700
X427495Y451696
X402095
X376696
X351296
T04
X32000Y103500
X82000
X608500Y103500
X658500
Y138500
X608500
X82000Y138500
X32000
X32000Y235000
Y270000
Y305000
Y340000
X82000
Y305000
Y270000
Y235000
T05
X35000Y35000
X655000
Y435000
T06
X35000Y435000
M30
