G04*
G04 #@! TF.GenerationSoftware,Altium Limited,Altium Designer,21.0.9 (235)*
G04*
G04 Layer_Color=8421504*
%FSLAX44Y44*%
%MOMM*%
G71*
G04*
G04 #@! TF.SameCoordinates,B8152D85-E12F-4961-801D-9DD34C180D21*
G04*
G04*
G04 #@! TF.FilePolarity,Positive*
G04*
G01*
G75*
%ADD19R,0.9500X1.3000*%
%ADD20R,1.6000X1.1000*%
%ADD21R,1.3000X0.9500*%
%ADD22R,0.7000X0.9000*%
%ADD23R,2.5000X3.1750*%
%ADD24R,2.6000X3.0000*%
%ADD25R,0.8500X0.3500*%
%ADD26R,1.7000X1.0500*%
%ADD27R,5.3340X2.4130*%
%ADD28R,3.2500X2.1500*%
%ADD29R,0.9500X2.1500*%
%ADD30R,5.5880X2.1082*%
%ADD31R,1.7000X3.1500*%
%ADD32R,0.9000X0.6000*%
%ADD33O,1.4500X0.6000*%
%ADD34R,0.9000X0.7000*%
%ADD35O,0.3000X1.4500*%
%ADD36O,1.4500X0.3000*%
%ADD37R,1.0500X1.7000*%
D19*
X610250Y402000D02*
D03*
X591750D02*
D03*
X242750Y115500D02*
D03*
X261250D02*
D03*
X290750Y281000D02*
D03*
X272250D02*
D03*
X272250Y339500D02*
D03*
X290750D02*
D03*
X272250Y397500D02*
D03*
X290750D02*
D03*
X237750Y85000D02*
D03*
X256250D02*
D03*
X465250Y17000D02*
D03*
X483750D02*
D03*
X242750Y41500D02*
D03*
X224250D02*
D03*
X242750Y60500D02*
D03*
X224250D02*
D03*
X441000Y373000D02*
D03*
X422500D02*
D03*
D20*
X585500Y372200D02*
D03*
Y346800D02*
D03*
Y321400D02*
D03*
Y296000D02*
D03*
Y270600D02*
D03*
Y245200D02*
D03*
Y219800D02*
D03*
Y194400D02*
D03*
X676500Y372200D02*
D03*
Y346800D02*
D03*
Y321400D02*
D03*
Y296000D02*
D03*
Y270600D02*
D03*
Y245200D02*
D03*
Y219800D02*
D03*
Y194400D02*
D03*
D21*
X467500Y116250D02*
D03*
Y97750D02*
D03*
X378000Y299250D02*
D03*
Y280750D02*
D03*
X181500Y48250D02*
D03*
Y29750D02*
D03*
X142000Y48250D02*
D03*
Y29750D02*
D03*
X274500Y85000D02*
D03*
Y66500D02*
D03*
X405000Y265250D02*
D03*
Y283750D02*
D03*
X530500Y354250D02*
D03*
Y335750D02*
D03*
X528500Y45250D02*
D03*
Y63750D02*
D03*
D22*
X518000Y17000D02*
D03*
X504000D02*
D03*
X312500Y301500D02*
D03*
X326500D02*
D03*
Y359500D02*
D03*
X312500D02*
D03*
X326500Y417500D02*
D03*
X312500D02*
D03*
X496000Y165500D02*
D03*
X510000D02*
D03*
D23*
X415500Y34790D02*
D03*
Y93210D02*
D03*
D24*
X201700Y92650D02*
D03*
D25*
X221450Y76649D02*
D03*
Y84650D02*
D03*
Y92650D02*
D03*
Y100650D02*
D03*
Y108650D02*
D03*
X181950Y76649D02*
D03*
Y84650D02*
D03*
Y92650D02*
D03*
Y100650D02*
D03*
Y108650D02*
D03*
D26*
X162000Y102750D02*
D03*
Y73250D02*
D03*
X164500Y228750D02*
D03*
Y199250D02*
D03*
X218500Y229000D02*
D03*
Y199500D02*
D03*
X192000Y229000D02*
D03*
Y199500D02*
D03*
D27*
X274850Y223650D02*
D03*
Y151250D02*
D03*
D28*
X342001Y43000D02*
D03*
D29*
X319000Y101000D02*
D03*
X342001D02*
D03*
X365001D02*
D03*
D30*
X415000Y202000D02*
D03*
X509996D02*
D03*
D31*
X151950Y152300D02*
D03*
X220950D02*
D03*
D32*
X272000Y311000D02*
D03*
X295000Y320500D02*
D03*
Y301500D02*
D03*
X272001Y427001D02*
D03*
X295000Y436500D02*
D03*
Y417500D02*
D03*
X272000Y369000D02*
D03*
X295000Y378500D02*
D03*
Y359500D02*
D03*
D33*
X237750Y388949D02*
D03*
Y401649D02*
D03*
Y414349D02*
D03*
Y427049D02*
D03*
X183250Y388949D02*
D03*
Y401649D02*
D03*
Y414349D02*
D03*
Y427049D02*
D03*
X543000Y85300D02*
D03*
Y98000D02*
D03*
Y110700D02*
D03*
Y123400D02*
D03*
X488500Y85300D02*
D03*
Y98000D02*
D03*
Y110700D02*
D03*
Y123400D02*
D03*
X237750Y272950D02*
D03*
Y285650D02*
D03*
Y298350D02*
D03*
Y311050D02*
D03*
X183251Y272950D02*
D03*
Y285650D02*
D03*
Y298350D02*
D03*
Y311050D02*
D03*
X237750Y330950D02*
D03*
Y343650D02*
D03*
Y356350D02*
D03*
Y369050D02*
D03*
X183250Y330950D02*
D03*
Y343650D02*
D03*
Y356350D02*
D03*
Y369050D02*
D03*
D34*
X375500Y188000D02*
D03*
Y202000D02*
D03*
D35*
X440000Y267750D02*
D03*
X445000Y267750D02*
D03*
X450000Y267750D02*
D03*
X455000D02*
D03*
X460000D02*
D03*
X465000D02*
D03*
X470000D02*
D03*
X475000D02*
D03*
X480000D02*
D03*
X485000D02*
D03*
X490000D02*
D03*
X495000D02*
D03*
Y352250D02*
D03*
X490000D02*
D03*
X485000D02*
D03*
X480000D02*
D03*
X475000D02*
D03*
X470000D02*
D03*
X465000D02*
D03*
X460000D02*
D03*
X455000D02*
D03*
X450000D02*
D03*
X445000D02*
D03*
X440000D02*
D03*
D36*
X509750Y282500D02*
D03*
Y287500D02*
D03*
X509750Y292500D02*
D03*
Y297500D02*
D03*
Y302500D02*
D03*
Y307500D02*
D03*
X509750Y312500D02*
D03*
Y317500D02*
D03*
X509750Y322500D02*
D03*
X509750Y327500D02*
D03*
Y332500D02*
D03*
Y337500D02*
D03*
X425250D02*
D03*
Y332500D02*
D03*
Y327500D02*
D03*
Y322500D02*
D03*
Y317500D02*
D03*
Y312500D02*
D03*
Y307500D02*
D03*
Y302500D02*
D03*
Y297500D02*
D03*
Y292500D02*
D03*
Y287500D02*
D03*
Y282500D02*
D03*
D37*
X319500Y126500D02*
D03*
X349000D02*
D03*
M02*
