G04*
G04 #@! TF.GenerationSoftware,Altium Limited,Altium Designer,21.0.9 (235)*
G04*
G04 Layer_Physical_Order=2*
G04 Layer_Color=16711680*
%FSLAX44Y44*%
%MOMM*%
G71*
G04*
G04 #@! TF.SameCoordinates,B8152D85-E12F-4961-801D-9DD34C180D21*
G04*
G04*
G04 #@! TF.FilePolarity,Positive*
G04*
G01*
G75*
%ADD12C,0.2500*%
%ADD63C,0.5000*%
%ADD64C,1.0000*%
%ADD65C,0.3500*%
%ADD67C,1.5240*%
%ADD68R,1.5240X1.5240*%
%ADD69C,2.0000*%
%ADD70R,2.0000X2.0000*%
%ADD71C,6.0000*%
%ADD72C,0.8000*%
%ADD73C,0.6000*%
G36*
X685922Y4078D02*
X4078D01*
Y465922D01*
X685922D01*
X685922Y4078D01*
D02*
G37*
%LPC*%
G36*
X352565Y461776D02*
Y452966D01*
X361376D01*
X361194Y454348D01*
X360170Y456819D01*
X358542Y458942D01*
X356419Y460570D01*
X353948Y461594D01*
X352565Y461776D01*
D02*
G37*
G36*
X350025Y461776D02*
X348643Y461594D01*
X346172Y460570D01*
X344049Y458942D01*
X342421Y456819D01*
X341397Y454348D01*
X341215Y452966D01*
X350025D01*
Y461776D01*
D02*
G37*
G36*
X479970Y461581D02*
Y452770D01*
X488781D01*
X488599Y454152D01*
X487575Y456624D01*
X485946Y458746D01*
X483824Y460375D01*
X481352Y461399D01*
X479970Y461581D01*
D02*
G37*
G36*
X477430Y461581D02*
X476048Y461399D01*
X473576Y460375D01*
X471454Y458746D01*
X469825Y456624D01*
X468801Y454152D01*
X468619Y452770D01*
X477430D01*
Y461581D01*
D02*
G37*
G36*
X350025Y450425D02*
X341215D01*
X341397Y449043D01*
X342421Y446572D01*
X344049Y444449D01*
X346172Y442821D01*
X348643Y441797D01*
X350025Y441615D01*
Y450425D01*
D02*
G37*
G36*
X361376D02*
X352565D01*
Y441615D01*
X353948Y441797D01*
X356419Y442821D01*
X358542Y444449D01*
X360170Y446572D01*
X361194Y449043D01*
X361376Y450425D01*
D02*
G37*
G36*
X402095Y461903D02*
X399454Y461555D01*
X396992Y460535D01*
X394878Y458913D01*
X393256Y456799D01*
X392236Y454337D01*
X391888Y451696D01*
X392236Y449054D01*
X393256Y446592D01*
X394878Y444478D01*
X396992Y442856D01*
X399454Y441836D01*
X402095Y441488D01*
X404737Y441836D01*
X407199Y442856D01*
X409313Y444478D01*
X410935Y446592D01*
X411955Y449054D01*
X412303Y451696D01*
X411955Y454337D01*
X410935Y456799D01*
X409313Y458913D01*
X407199Y460535D01*
X404737Y461555D01*
X402095Y461903D01*
D02*
G37*
G36*
X376696D02*
X374054Y461555D01*
X371592Y460535D01*
X369478Y458913D01*
X367856Y456799D01*
X366836Y454337D01*
X366488Y451696D01*
X366836Y449054D01*
X367856Y446592D01*
X369478Y444478D01*
X371592Y442856D01*
X374054Y441836D01*
X376696Y441488D01*
X379337Y441836D01*
X381799Y442856D01*
X383913Y444478D01*
X385535Y446592D01*
X386555Y449054D01*
X386903Y451696D01*
X386555Y454337D01*
X385535Y456799D01*
X383913Y458913D01*
X381799Y460535D01*
X379337Y461555D01*
X376696Y461903D01*
D02*
G37*
G36*
X488781Y450230D02*
X479970D01*
Y441420D01*
X481352Y441601D01*
X483824Y442625D01*
X485946Y444254D01*
X487575Y446376D01*
X488599Y448848D01*
X488781Y450230D01*
D02*
G37*
G36*
X477430D02*
X468619D01*
X468801Y448848D01*
X469825Y446376D01*
X471454Y444254D01*
X473576Y442625D01*
X476048Y441601D01*
X477430Y441419D01*
Y450230D01*
D02*
G37*
G36*
X565020Y461620D02*
X544780D01*
Y441380D01*
X565020D01*
Y461620D01*
D02*
G37*
G36*
X437616Y461815D02*
X417375D01*
Y441576D01*
X420935D01*
Y413133D01*
X417151Y409349D01*
X415949Y407782D01*
X415193Y405958D01*
X414935Y404000D01*
Y392565D01*
X407000D01*
X407000Y392565D01*
X405042Y392307D01*
X403218Y391551D01*
X401651Y390349D01*
X401651Y390349D01*
X368651Y357349D01*
X367449Y355782D01*
X366693Y353958D01*
X366435Y352000D01*
Y283000D01*
X366693Y281042D01*
X367449Y279218D01*
X368651Y277651D01*
X386651Y259651D01*
X388218Y258449D01*
X390042Y257693D01*
X392000Y257435D01*
X393958Y257693D01*
X395782Y258449D01*
X397349Y259651D01*
X398551Y261218D01*
X399307Y263042D01*
X399565Y265000D01*
X399307Y266958D01*
X398551Y268782D01*
X397349Y270349D01*
X381565Y286133D01*
Y315147D01*
X382835Y315399D01*
X383322Y314222D01*
X384364Y312864D01*
X385722Y311822D01*
X387303Y311167D01*
X389000Y310944D01*
X390075Y311085D01*
X390993Y309984D01*
X390667Y309197D01*
X390444Y307500D01*
X390667Y305803D01*
X391322Y304222D01*
X392364Y302864D01*
X393722Y301822D01*
X395303Y301167D01*
X397000Y300944D01*
X398697Y301167D01*
X400278Y301822D01*
X401636Y302864D01*
X402259Y303677D01*
X425916D01*
X434796Y294796D01*
X436037Y293968D01*
X437500Y293677D01*
X471916D01*
X540677Y224916D01*
Y204000D01*
X540968Y202537D01*
X541796Y201297D01*
X551797Y191296D01*
X553037Y190468D01*
X554500Y190177D01*
X565741D01*
X566364Y189364D01*
X567722Y188322D01*
X569303Y187667D01*
X571000Y187444D01*
X572697Y187667D01*
X574278Y188322D01*
X575636Y189364D01*
X576678Y190722D01*
X577333Y192303D01*
X577556Y194000D01*
X577333Y195697D01*
X576678Y197278D01*
X575636Y198636D01*
X574278Y199678D01*
X572697Y200333D01*
X571000Y200556D01*
X569303Y200333D01*
X567722Y199678D01*
X566364Y198636D01*
X565741Y197823D01*
X556084D01*
X548323Y205584D01*
Y226473D01*
X548382Y226529D01*
X549501Y227092D01*
X559796Y216796D01*
X561037Y215968D01*
X562500Y215677D01*
X565741D01*
X566364Y214864D01*
X567722Y213822D01*
X569303Y213167D01*
X571000Y212944D01*
X572697Y213167D01*
X574278Y213822D01*
X575636Y214864D01*
X576678Y216222D01*
X577333Y217803D01*
X577556Y219500D01*
X577333Y221197D01*
X576678Y222778D01*
X575636Y224136D01*
X574278Y225178D01*
X572697Y225833D01*
X571000Y226056D01*
X569303Y225833D01*
X567722Y225178D01*
X566364Y224136D01*
X565741Y223323D01*
X564084D01*
X547404Y240003D01*
X547890Y241177D01*
X565741D01*
X566364Y240364D01*
X567722Y239322D01*
X569303Y238667D01*
X571000Y238444D01*
X572697Y238667D01*
X574278Y239322D01*
X575636Y240364D01*
X576678Y241722D01*
X577333Y243303D01*
X577556Y245000D01*
X577333Y246697D01*
X576678Y248278D01*
X575636Y249636D01*
X574278Y250678D01*
X572697Y251333D01*
X571000Y251556D01*
X569303Y251333D01*
X567722Y250678D01*
X566364Y249636D01*
X565741Y248823D01*
X547084D01*
X530404Y265503D01*
X530890Y266677D01*
X564741D01*
X565364Y265864D01*
X566722Y264822D01*
X568303Y264167D01*
X570000Y263944D01*
X571697Y264167D01*
X573278Y264822D01*
X574636Y265864D01*
X575678Y267222D01*
X576333Y268803D01*
X576556Y270500D01*
X576333Y272197D01*
X575678Y273778D01*
X574636Y275136D01*
X573278Y276178D01*
X571697Y276833D01*
X570000Y277056D01*
X568303Y276833D01*
X566722Y276178D01*
X565364Y275136D01*
X564741Y274323D01*
X530084D01*
X479501Y324907D01*
X479889Y326080D01*
X479964Y326177D01*
X493916D01*
X530796Y289296D01*
X532037Y288468D01*
X533500Y288177D01*
X575000D01*
X576463Y288468D01*
X577704Y289296D01*
X580584Y292177D01*
X597264D01*
X597887Y291364D01*
X599245Y290322D01*
X600826Y289667D01*
X602523Y289444D01*
X604220Y289667D01*
X605801Y290322D01*
X607159Y291364D01*
X608200Y292722D01*
X608855Y294303D01*
X609079Y296000D01*
X608855Y297697D01*
X608200Y299278D01*
X607159Y300636D01*
X605801Y301678D01*
X604220Y302333D01*
X602523Y302556D01*
X600826Y302333D01*
X599245Y301678D01*
X597887Y300636D01*
X597264Y299823D01*
X580527D01*
X580001Y301093D01*
X588704Y309796D01*
X589532Y311037D01*
X589823Y312500D01*
Y345500D01*
X589532Y346963D01*
X588704Y348204D01*
X574323Y362584D01*
Y366741D01*
X575136Y367364D01*
X576178Y368722D01*
X576833Y370303D01*
X577056Y372000D01*
X576833Y373697D01*
X576178Y375278D01*
X575136Y376636D01*
X573778Y377678D01*
X572197Y378333D01*
X570500Y378556D01*
X568803Y378333D01*
X567222Y377678D01*
X565864Y376636D01*
X564822Y375278D01*
X564167Y373697D01*
X563944Y372000D01*
X564167Y370303D01*
X564822Y368722D01*
X565864Y367364D01*
X566677Y366741D01*
Y361000D01*
X566968Y359537D01*
X567796Y358296D01*
X571370Y354722D01*
X570777Y353520D01*
X570500Y353556D01*
X568803Y353333D01*
X567222Y352678D01*
X565864Y351636D01*
X564822Y350278D01*
X564167Y348697D01*
X563944Y347000D01*
X564167Y345303D01*
X564822Y343722D01*
X565864Y342364D01*
X566677Y341741D01*
Y336500D01*
X566968Y335037D01*
X567796Y333797D01*
X576379Y325214D01*
X576306Y324809D01*
X575976Y324654D01*
X574968Y324551D01*
X574136Y325636D01*
X572778Y326678D01*
X571197Y327333D01*
X569500Y327556D01*
X567803Y327333D01*
X566222Y326678D01*
X564864Y325636D01*
X564241Y324823D01*
X562584D01*
X561204Y326204D01*
X559963Y327032D01*
X558500Y327323D01*
X548259D01*
X547636Y328136D01*
X546278Y329178D01*
X544697Y329833D01*
X543000Y330056D01*
X541303Y329833D01*
X539722Y329178D01*
X538364Y328136D01*
X537322Y326778D01*
X536667Y325197D01*
X536444Y323500D01*
X536667Y321803D01*
X537322Y320222D01*
X537470Y320029D01*
X536742Y318892D01*
X535500Y319056D01*
X533803Y318832D01*
X532222Y318178D01*
X530864Y317136D01*
X529822Y315778D01*
X529167Y314197D01*
X528944Y312500D01*
X529167Y310803D01*
X529822Y309222D01*
X530864Y307864D01*
X532222Y306822D01*
X533036Y306485D01*
X533295Y305420D01*
X533270Y305013D01*
X532322Y303778D01*
X531667Y302197D01*
X531532Y301171D01*
X530191Y300716D01*
X498204Y332704D01*
X496963Y333532D01*
X495500Y333823D01*
X402259D01*
X401636Y334636D01*
X400278Y335678D01*
X398697Y336333D01*
X397000Y336556D01*
X395303Y336333D01*
X393722Y335678D01*
X392364Y334636D01*
X391322Y333278D01*
X390667Y331697D01*
X390444Y330000D01*
X390667Y328303D01*
X391322Y326722D01*
X392364Y325364D01*
X393722Y324322D01*
X395303Y323667D01*
X397000Y323444D01*
X398697Y323667D01*
X400278Y324322D01*
X401636Y325364D01*
X402259Y326177D01*
X442112D01*
X442961Y324907D01*
X442667Y324197D01*
X442448Y322529D01*
X442416Y322366D01*
X441318Y321323D01*
X394259D01*
X393636Y322136D01*
X392278Y323178D01*
X390697Y323833D01*
X389000Y324056D01*
X387303Y323833D01*
X385722Y323178D01*
X384364Y322136D01*
X383322Y320778D01*
X382835Y319601D01*
X381565Y319853D01*
Y348867D01*
X410133Y377435D01*
X419367D01*
X447651Y349151D01*
X447651Y349151D01*
X449218Y347949D01*
X451042Y347193D01*
X453000Y346935D01*
X543500D01*
X545458Y347193D01*
X547282Y347949D01*
X548849Y349151D01*
X550051Y350718D01*
X550807Y352542D01*
X551065Y354500D01*
X550807Y356458D01*
X550051Y358282D01*
X548849Y359849D01*
X547282Y361051D01*
X545458Y361807D01*
X543500Y362065D01*
X456133D01*
X430065Y388133D01*
Y400867D01*
X433849Y404651D01*
X435051Y406218D01*
X435807Y408042D01*
X435936Y409021D01*
X436065Y410000D01*
X436065Y410000D01*
Y441576D01*
X437616D01*
Y461815D01*
D02*
G37*
G36*
X529500Y461707D02*
X526858Y461360D01*
X524396Y460340D01*
X522282Y458718D01*
X520660Y456604D01*
X519641Y454142D01*
X519293Y451500D01*
X519641Y448858D01*
X520660Y446396D01*
X522282Y444282D01*
X524396Y442660D01*
X525677Y442130D01*
Y425084D01*
X482222Y381630D01*
X481020Y382223D01*
X481056Y382500D01*
X480922Y383515D01*
X506804Y409396D01*
X507632Y410637D01*
X507923Y412100D01*
Y442130D01*
X509204Y442660D01*
X511318Y444282D01*
X512940Y446396D01*
X513960Y448858D01*
X514307Y451500D01*
X513960Y454142D01*
X512940Y456604D01*
X511318Y458718D01*
X509204Y460340D01*
X506742Y461360D01*
X504100Y461707D01*
X501458Y461360D01*
X498996Y460340D01*
X496882Y458718D01*
X495260Y456604D01*
X494240Y454142D01*
X493893Y451500D01*
X494240Y448858D01*
X495260Y446396D01*
X496882Y444282D01*
X498996Y442660D01*
X500277Y442130D01*
Y413684D01*
X475515Y388922D01*
X474500Y389056D01*
X472803Y388833D01*
X471222Y388178D01*
X469864Y387136D01*
X468822Y385778D01*
X468167Y384197D01*
X467944Y382500D01*
X468167Y380803D01*
X468822Y379222D01*
X469864Y377864D01*
X471222Y376822D01*
X471653Y376644D01*
X472067Y375097D01*
X471822Y374778D01*
X471167Y373197D01*
X470944Y371500D01*
X471167Y369803D01*
X471822Y368222D01*
X472864Y366864D01*
X474222Y365822D01*
X475803Y365167D01*
X477500Y364944D01*
X479197Y365167D01*
X480778Y365822D01*
X482136Y366864D01*
X483178Y368222D01*
X483833Y369803D01*
X484056Y371500D01*
X483922Y372515D01*
X532204Y420796D01*
X533032Y422037D01*
X533323Y423500D01*
Y442130D01*
X534604Y442660D01*
X536718Y444282D01*
X538340Y446396D01*
X539360Y448858D01*
X539707Y451500D01*
X539360Y454142D01*
X538340Y456604D01*
X536718Y458718D01*
X534604Y460340D01*
X532142Y461360D01*
X529500Y461707D01*
D02*
G37*
G36*
X94500Y352500D02*
X69500D01*
Y327500D01*
X94500D01*
Y352500D01*
D02*
G37*
G36*
X44500D02*
X19500D01*
Y327500D01*
X44500D01*
Y352500D01*
D02*
G37*
G36*
X82000Y317608D02*
X78737Y317178D01*
X75696Y315919D01*
X73085Y313915D01*
X71081Y311304D01*
X69822Y308263D01*
X69392Y305000D01*
X69822Y301737D01*
X71081Y298696D01*
X73085Y296085D01*
X75696Y294081D01*
X78737Y292822D01*
X82000Y292392D01*
X85263Y292822D01*
X88304Y294081D01*
X90915Y296085D01*
X92919Y298696D01*
X94178Y301737D01*
X94608Y305000D01*
X94178Y308263D01*
X92919Y311304D01*
X90915Y313915D01*
X88304Y315919D01*
X85263Y317178D01*
X82000Y317608D01*
D02*
G37*
G36*
X32000D02*
X28736Y317178D01*
X25696Y315919D01*
X23084Y313915D01*
X21081Y311304D01*
X19821Y308263D01*
X19392Y305000D01*
X19821Y301737D01*
X21081Y298696D01*
X23084Y296085D01*
X25696Y294081D01*
X28736Y292822D01*
X32000Y292392D01*
X35263Y292822D01*
X38303Y294081D01*
X40915Y296085D01*
X42918Y298696D01*
X44178Y301737D01*
X44608Y305000D01*
X44178Y308263D01*
X42918Y311304D01*
X40915Y313915D01*
X38303Y315919D01*
X35263Y317178D01*
X32000Y317608D01*
D02*
G37*
G36*
X82000Y282608D02*
X78737Y282178D01*
X75696Y280919D01*
X73085Y278915D01*
X71081Y276304D01*
X69822Y273263D01*
X69392Y270000D01*
X69822Y266737D01*
X71081Y263696D01*
X73085Y261085D01*
X75696Y259081D01*
X78737Y257822D01*
X82000Y257392D01*
X85263Y257822D01*
X88304Y259081D01*
X90915Y261085D01*
X92919Y263696D01*
X94178Y266737D01*
X94608Y270000D01*
X94178Y273263D01*
X92919Y276304D01*
X90915Y278915D01*
X88304Y280919D01*
X85263Y282178D01*
X82000Y282608D01*
D02*
G37*
G36*
X32000D02*
X28736Y282178D01*
X25696Y280919D01*
X23084Y278915D01*
X21081Y276304D01*
X19821Y273263D01*
X19392Y270000D01*
X19821Y266737D01*
X21081Y263696D01*
X23084Y261085D01*
X25696Y259081D01*
X28736Y257822D01*
X32000Y257392D01*
X35263Y257822D01*
X38303Y259081D01*
X40915Y261085D01*
X42918Y263696D01*
X44178Y266737D01*
X44608Y270000D01*
X44178Y273263D01*
X42918Y276304D01*
X40915Y278915D01*
X38303Y280919D01*
X35263Y282178D01*
X32000Y282608D01*
D02*
G37*
G36*
X302000Y404056D02*
X300303Y403833D01*
X298722Y403178D01*
X297364Y402136D01*
X296322Y400778D01*
X295667Y399197D01*
X295543Y398253D01*
X290895Y393605D01*
X289790Y391951D01*
X289402Y390000D01*
Y368500D01*
X289790Y366549D01*
X290895Y364895D01*
X296902Y358888D01*
Y343534D01*
X296322Y342778D01*
X295667Y341197D01*
X295543Y340253D01*
X290895Y335605D01*
X289790Y333951D01*
X289402Y332000D01*
Y303500D01*
X289790Y301549D01*
X290895Y299895D01*
X296402Y294388D01*
Y285034D01*
X295822Y284278D01*
X295167Y282697D01*
X294944Y281000D01*
X295167Y279303D01*
X295822Y277722D01*
X296402Y276966D01*
Y271612D01*
X290895Y266105D01*
X289790Y264451D01*
X289402Y262500D01*
Y247549D01*
X82448Y247549D01*
X82000Y247608D01*
X81552Y247549D01*
X32447D01*
X32000Y247608D01*
X28736Y247178D01*
X25696Y245919D01*
X23084Y243915D01*
X21081Y241304D01*
X19821Y238263D01*
X19392Y235000D01*
X19821Y231737D01*
X21081Y228696D01*
X23084Y226085D01*
X25696Y224081D01*
X28736Y222822D01*
X32000Y222392D01*
X32447Y222451D01*
X81552D01*
X82000Y222392D01*
X82448Y222451D01*
X91000D01*
X301500Y222451D01*
X302475Y222645D01*
X303302Y223198D01*
X303855Y224025D01*
X304049Y225000D01*
X304049Y245000D01*
X303855Y245975D01*
X303302Y246802D01*
X302475Y247355D01*
X301500Y247549D01*
X299598D01*
Y260388D01*
X305105Y265895D01*
X306210Y267549D01*
X306598Y269500D01*
Y276966D01*
X307178Y277722D01*
X307833Y279303D01*
X308056Y281000D01*
X307833Y282697D01*
X307178Y284278D01*
X306598Y285034D01*
Y296500D01*
X306210Y298451D01*
X305105Y300105D01*
X299598Y305612D01*
Y329888D01*
X302753Y333043D01*
X303697Y333167D01*
X305278Y333822D01*
X306636Y334864D01*
X307678Y336222D01*
X308333Y337803D01*
X308556Y339500D01*
X308333Y341197D01*
X307678Y342778D01*
X307098Y343534D01*
Y361000D01*
X306710Y362951D01*
X305605Y364605D01*
X299598Y370612D01*
Y387888D01*
X302753Y391043D01*
X303697Y391167D01*
X305278Y391822D01*
X306636Y392864D01*
X307678Y394222D01*
X308333Y395803D01*
X308556Y397500D01*
X308333Y399197D01*
X307678Y400778D01*
X306636Y402136D01*
X305278Y403178D01*
X303697Y403833D01*
X302000Y404056D01*
D02*
G37*
G36*
X336500Y424056D02*
X334803Y423833D01*
X333222Y423178D01*
X331864Y422136D01*
X330822Y420778D01*
X330167Y419197D01*
X329944Y417500D01*
X330167Y415803D01*
X330822Y414222D01*
X331864Y412864D01*
X332677Y412241D01*
Y379584D01*
X317296Y364204D01*
X316468Y362963D01*
X316177Y361500D01*
Y258000D01*
X316468Y256537D01*
X317296Y255296D01*
X356296Y216296D01*
X357537Y215468D01*
X359000Y215177D01*
X489500D01*
X490963Y215468D01*
X492204Y216296D01*
X501985Y226078D01*
X503000Y225944D01*
X504697Y226167D01*
X506278Y226822D01*
X507636Y227864D01*
X508678Y229222D01*
X509333Y230803D01*
X509556Y232500D01*
X509333Y234197D01*
X508678Y235778D01*
X507636Y237136D01*
X506278Y238178D01*
X504697Y238833D01*
X503000Y239056D01*
X501303Y238833D01*
X499722Y238178D01*
X498364Y237136D01*
X497322Y235778D01*
X497188Y235453D01*
X495813D01*
X495678Y235778D01*
X494636Y237136D01*
X493278Y238178D01*
X491697Y238833D01*
X490000Y239056D01*
X488303Y238833D01*
X486722Y238178D01*
X485364Y237136D01*
X485006Y236669D01*
X483556Y236865D01*
X483178Y237778D01*
X482136Y239136D01*
X480778Y240178D01*
X479197Y240833D01*
X477500Y241056D01*
X475803Y240833D01*
X474222Y240178D01*
X472864Y239136D01*
X471857Y237823D01*
X377584D01*
X342323Y273084D01*
Y296241D01*
X343136Y296864D01*
X344178Y298222D01*
X344833Y299803D01*
X345056Y301500D01*
X344833Y303197D01*
X344178Y304778D01*
X343136Y306136D01*
X341778Y307178D01*
X340197Y307833D01*
X338500Y308056D01*
X336803Y307833D01*
X335222Y307178D01*
X333864Y306136D01*
X333593Y305783D01*
X332323Y306214D01*
Y309916D01*
X339803Y317396D01*
X340632Y318636D01*
X340923Y320100D01*
Y354440D01*
X341735Y355064D01*
X342777Y356421D01*
X343432Y358003D01*
X343656Y359700D01*
X343432Y361396D01*
X342777Y362977D01*
X341735Y364335D01*
X340378Y365377D01*
X338797Y366032D01*
X337100Y366255D01*
X335403Y366032D01*
X333822Y365377D01*
X332464Y364335D01*
X331422Y362977D01*
X330767Y361396D01*
X330544Y359700D01*
X330767Y358003D01*
X331422Y356421D01*
X332464Y355064D01*
X333276Y354440D01*
Y321683D01*
X325796Y314204D01*
X325093Y313151D01*
X324296Y313198D01*
X323823Y313363D01*
Y359916D01*
X339204Y375296D01*
X340032Y376537D01*
X340323Y378000D01*
Y412241D01*
X341136Y412864D01*
X342178Y414222D01*
X342833Y415803D01*
X343056Y417500D01*
X342833Y419197D01*
X342178Y420778D01*
X341136Y422136D01*
X339778Y423178D01*
X338197Y423833D01*
X336500Y424056D01*
D02*
G37*
G36*
X658500Y151108D02*
X655237Y150678D01*
X652196Y149419D01*
X649585Y147415D01*
X647581Y144804D01*
X646765Y142833D01*
X620235D01*
X619419Y144804D01*
X617415Y147415D01*
X614804Y149419D01*
X611763Y150678D01*
X608500Y151108D01*
X605237Y150678D01*
X602196Y149419D01*
X599585Y147415D01*
X597581Y144804D01*
X596322Y141763D01*
X595892Y138500D01*
X596322Y135237D01*
X597581Y132196D01*
X599585Y129585D01*
X602196Y127581D01*
X605237Y126322D01*
X608500Y125892D01*
X611763Y126322D01*
X614804Y127581D01*
X617415Y129585D01*
X619419Y132196D01*
X620235Y134167D01*
X646765D01*
X647581Y132196D01*
X649585Y129585D01*
X652196Y127581D01*
X655237Y126322D01*
X658500Y125892D01*
X661763Y126322D01*
X664804Y127581D01*
X667415Y129585D01*
X669419Y132196D01*
X670678Y135237D01*
X671108Y138500D01*
X670678Y141763D01*
X669419Y144804D01*
X667415Y147415D01*
X664804Y149419D01*
X661763Y150678D01*
X658500Y151108D01*
D02*
G37*
G36*
X94540Y151040D02*
X83270D01*
Y139770D01*
X94540D01*
Y151040D01*
D02*
G37*
G36*
X44540D02*
X33270D01*
Y139770D01*
X44540D01*
Y151040D01*
D02*
G37*
G36*
X80730D02*
X69460D01*
Y139770D01*
X80730D01*
Y151040D01*
D02*
G37*
G36*
X30730D02*
X19460D01*
Y139770D01*
X30730D01*
Y151040D01*
D02*
G37*
G36*
X94540Y137230D02*
X83270D01*
Y125960D01*
X94540D01*
Y137230D01*
D02*
G37*
G36*
X80730D02*
X69460D01*
Y125960D01*
X80730D01*
Y137230D01*
D02*
G37*
G36*
X44540D02*
X33270D01*
Y125960D01*
X44540D01*
Y137230D01*
D02*
G37*
G36*
X30730D02*
X19460D01*
Y125960D01*
X30730D01*
Y137230D01*
D02*
G37*
G36*
X181950Y125506D02*
X180253Y125283D01*
X178672Y124628D01*
X177314Y123586D01*
X176272Y122228D01*
X175617Y120647D01*
X175394Y118950D01*
X175617Y117253D01*
X176272Y115672D01*
X177314Y114314D01*
X178672Y113272D01*
X180253Y112617D01*
X181950Y112394D01*
X183647Y112617D01*
X185228Y113272D01*
X186586Y114314D01*
X186818Y114617D01*
X213255D01*
X215436Y112436D01*
X216842Y111497D01*
X218500Y111167D01*
X268632D01*
X268864Y110864D01*
X270222Y109822D01*
X271803Y109167D01*
X273500Y108944D01*
X275197Y109167D01*
X276778Y109822D01*
X278136Y110864D01*
X279178Y112222D01*
X279833Y113803D01*
X280056Y115500D01*
X279833Y117197D01*
X279178Y118778D01*
X278136Y120136D01*
X276778Y121178D01*
X275197Y121833D01*
X273500Y122056D01*
X271803Y121833D01*
X270222Y121178D01*
X268864Y120136D01*
X268632Y119833D01*
X220295D01*
X218114Y122014D01*
X216708Y122953D01*
X215050Y123283D01*
X186818D01*
X186586Y123586D01*
X185228Y124628D01*
X183647Y125283D01*
X181950Y125506D01*
D02*
G37*
G36*
X671000Y116000D02*
X646000D01*
Y107833D01*
X621000D01*
Y116000D01*
X596000D01*
Y91000D01*
X621000D01*
Y99167D01*
X646000D01*
Y91000D01*
X671000D01*
Y116000D01*
D02*
G37*
G36*
X82000Y116108D02*
X78737Y115678D01*
X75696Y114419D01*
X73085Y112415D01*
X71081Y109804D01*
X69822Y106763D01*
X69392Y103500D01*
X69822Y100237D01*
X71081Y97196D01*
X73085Y94585D01*
X75696Y92581D01*
X78737Y91321D01*
X82000Y90892D01*
X85263Y91321D01*
X88304Y92581D01*
X90915Y94585D01*
X92919Y97196D01*
X94178Y100237D01*
X94608Y103500D01*
X94178Y106763D01*
X92919Y109804D01*
X90915Y112415D01*
X88304Y114419D01*
X85263Y115678D01*
X82000Y116108D01*
D02*
G37*
G36*
X32000D02*
X28737Y115678D01*
X25696Y114419D01*
X23085Y112415D01*
X21081Y109804D01*
X19822Y106763D01*
X19392Y103500D01*
X19822Y100237D01*
X21081Y97196D01*
X23085Y94585D01*
X25696Y92581D01*
X28737Y91321D01*
X32000Y90892D01*
X35263Y91321D01*
X38304Y92581D01*
X40915Y94585D01*
X42919Y97196D01*
X44178Y100237D01*
X44608Y103500D01*
X44178Y106763D01*
X42919Y109804D01*
X40915Y112415D01*
X38304Y114419D01*
X35263Y115678D01*
X32000Y116108D01*
D02*
G37*
G36*
X594420Y62120D02*
X574180D01*
Y41880D01*
X594420D01*
Y62120D01*
D02*
G37*
G36*
X558900Y62207D02*
X556258Y61859D01*
X553796Y60840D01*
X551682Y59218D01*
X550060Y57104D01*
X549040Y54642D01*
X548693Y52000D01*
X549040Y49358D01*
X550060Y46896D01*
X551682Y44782D01*
X553796Y43160D01*
X556258Y42140D01*
X558900Y41793D01*
X561542Y42140D01*
X564004Y43160D01*
X566118Y44782D01*
X567740Y46896D01*
X568759Y49358D01*
X569107Y52000D01*
X568759Y54642D01*
X567740Y57104D01*
X566118Y59218D01*
X564004Y60840D01*
X561542Y61859D01*
X558900Y62207D01*
D02*
G37*
G36*
X454500Y105065D02*
X452542Y104807D01*
X450718Y104051D01*
X449151Y102849D01*
X447949Y101282D01*
X447193Y99458D01*
X446935Y97500D01*
Y50133D01*
X429867Y33065D01*
X382049D01*
Y59000D01*
X381855Y59975D01*
X381302Y60802D01*
X380475Y61355D01*
X379500Y61549D01*
X304000D01*
X303025Y61355D01*
X302198Y60802D01*
X301645Y59975D01*
X301451Y59000D01*
Y17500D01*
X301645Y16525D01*
X302198Y15698D01*
X303025Y15145D01*
X304000Y14951D01*
X379500D01*
X380475Y15145D01*
X381302Y15698D01*
X381855Y16525D01*
X382049Y17500D01*
Y17935D01*
X433000D01*
X434958Y18193D01*
X436782Y18949D01*
X438349Y20151D01*
X459849Y41651D01*
X461051Y43218D01*
X461807Y45042D01*
X462065Y47000D01*
Y97500D01*
X461807Y99458D01*
X461051Y101282D01*
X459849Y102849D01*
X458282Y104051D01*
X456458Y104807D01*
X454500Y105065D01*
D02*
G37*
%LPD*%
G36*
X301500Y225000D02*
X91000Y225000D01*
X32000D01*
X32000Y245000D01*
X301500Y245000D01*
X301500Y225000D01*
D02*
G37*
G36*
X333864Y296864D02*
X334677Y296241D01*
Y271500D01*
X334968Y270037D01*
X335796Y268796D01*
X373296Y231296D01*
X374348Y230593D01*
X374302Y229795D01*
X374137Y229323D01*
X370584D01*
X332323Y267584D01*
Y296786D01*
X333593Y297217D01*
X333864Y296864D01*
D02*
G37*
G36*
X325796Y263296D02*
X365096Y223997D01*
X364610Y222823D01*
X360584D01*
X323823Y259584D01*
Y264137D01*
X324296Y264302D01*
X325093Y264349D01*
X325796Y263296D01*
D02*
G37*
G36*
X379500Y17500D02*
X304000D01*
Y59000D01*
X379500D01*
Y17500D01*
D02*
G37*
D12*
X397000Y330000D02*
X495500D01*
X535500Y312500D02*
X576000D01*
X544500Y204000D02*
X554500Y194000D01*
X544500Y204000D02*
Y226500D01*
X554500Y194000D02*
X571000D01*
X437500Y297500D02*
X473500D01*
X544500Y226500D01*
X427500Y307500D02*
X437500Y297500D01*
X397000Y307500D02*
X427500D01*
X444500Y306500D02*
X475500D01*
X562500Y219500D01*
X571000D01*
X545500Y245000D02*
X571000D01*
X476000Y314500D02*
X545500Y245000D01*
X445000Y314500D02*
X476000D01*
X442000Y317500D02*
X445000Y314500D01*
X389000Y317500D02*
X442000D01*
X476500Y322500D02*
X528500Y270500D01*
X570000D01*
X449000Y322500D02*
X476500D01*
X533500Y292000D02*
X575000D01*
X495500Y330000D02*
X533500Y292000D01*
X575000D02*
X579000Y296000D01*
X602523D01*
X320000Y361500D02*
X336500Y378000D01*
Y417500D01*
X320000Y258000D02*
Y361500D01*
Y258000D02*
X359000Y219000D01*
X489500D01*
X503000Y232500D01*
X328500Y311500D02*
X337100Y320100D01*
Y359700D01*
X328500Y266000D02*
Y311500D01*
Y266000D02*
X369000Y225500D01*
X376000Y234000D02*
X477000D01*
X338500Y271500D02*
X376000Y234000D01*
X338500Y271500D02*
Y301500D01*
X369000Y225500D02*
X483000D01*
X490000Y232500D01*
X570500Y361000D02*
Y372000D01*
Y361000D02*
X586000Y345500D01*
Y312500D02*
Y345500D01*
X574000Y300500D02*
X586000Y312500D01*
X538000Y300500D02*
X574000D01*
X576000Y312500D02*
X580500Y317000D01*
X570500Y336500D02*
X580500Y326500D01*
Y317000D02*
Y326500D01*
X570500Y336500D02*
Y347000D01*
X561000Y321000D02*
X569500D01*
X558500Y323500D02*
X561000Y321000D01*
X543000Y323500D02*
X558500D01*
X474500Y382500D02*
X504100Y412100D01*
Y451500D01*
X477500Y371500D02*
X529500Y423500D01*
Y451500D01*
X477000Y234000D02*
X477500Y234500D01*
D63*
X294500Y332000D02*
X302000Y339500D01*
X294500Y303500D02*
Y332000D01*
X302000Y339500D02*
Y361000D01*
X294500Y368500D02*
Y390000D01*
X302000Y397500D02*
Y397500D01*
X294500Y390000D02*
X302000Y397500D01*
X294500Y368500D02*
X302000Y361000D01*
X294500Y303500D02*
X301500Y296500D01*
Y281000D02*
Y296500D01*
Y269500D02*
Y281000D01*
X294500Y262500D02*
X301500Y269500D01*
X294500Y240000D02*
Y262500D01*
D64*
X433000Y25500D02*
X454500Y47000D01*
Y97500D01*
X371500Y25500D02*
X433000D01*
X427495Y451696D02*
X428500Y450691D01*
Y410000D02*
Y450691D01*
X422500Y385000D02*
Y404000D01*
X428500Y410000D01*
X422500Y385000D02*
X453000Y354500D01*
X543500D01*
X374000Y352000D02*
X407000Y385000D01*
X374000Y283000D02*
Y352000D01*
X407000Y385000D02*
X422500D01*
X374000Y283000D02*
X392000Y265000D01*
D65*
X608500Y138500D02*
X658500D01*
X608500Y103500D02*
X658500D01*
X215050Y118950D02*
X218500Y115500D01*
X181950Y118950D02*
X215050D01*
X218500Y115500D02*
X273500D01*
D67*
X504100Y451500D02*
D03*
X529500D02*
D03*
X478700D02*
D03*
X558900Y52000D02*
D03*
X351296Y451696D02*
D03*
X402095D02*
D03*
X376696D02*
D03*
D68*
X554900Y451500D02*
D03*
X584300Y52000D02*
D03*
X427495Y451696D02*
D03*
D69*
X608500Y138500D02*
D03*
X658500D02*
D03*
X32000Y103500D02*
D03*
X82000D02*
D03*
X32000Y270000D02*
D03*
Y305000D02*
D03*
X82000D02*
D03*
Y270000D02*
D03*
Y235000D02*
D03*
X32000D02*
D03*
D70*
X608500Y103500D02*
D03*
X658500D02*
D03*
X32000Y138500D02*
D03*
X82000D02*
D03*
X32000Y340000D02*
D03*
X82000D02*
D03*
D71*
X35000Y435000D02*
D03*
X655000D02*
D03*
X35000Y35000D02*
D03*
X655000D02*
D03*
D72*
X397000Y330000D02*
D03*
X535500Y312500D02*
D03*
X571000Y194000D02*
D03*
X444500Y306500D02*
D03*
X571000Y219500D02*
D03*
Y245000D02*
D03*
X570000Y270500D02*
D03*
X602523Y296000D02*
D03*
X449000Y322500D02*
D03*
X389000Y317500D02*
D03*
X397000Y307500D02*
D03*
X392000Y265000D02*
D03*
X570500Y372000D02*
D03*
Y347000D02*
D03*
X569500Y321000D02*
D03*
X543000Y323500D02*
D03*
X538000Y300500D02*
D03*
X454500Y97500D02*
D03*
X474500Y382500D02*
D03*
X477500Y371500D02*
D03*
X337100Y359700D02*
D03*
X336500Y417500D02*
D03*
X338500Y301500D02*
D03*
X503000Y232500D02*
D03*
X490000Y232500D02*
D03*
X477500Y234500D02*
D03*
X475000Y254000D02*
D03*
X529500Y17000D02*
D03*
X302000Y397500D02*
D03*
Y339500D02*
D03*
X301500Y281000D02*
D03*
X294500Y240000D02*
D03*
X265700D02*
D03*
X150500D02*
D03*
X236900D02*
D03*
X208100D02*
D03*
X179300D02*
D03*
X486000Y165500D02*
D03*
X375500Y178500D02*
D03*
X543000Y336500D02*
D03*
X543500Y354500D02*
D03*
X440000Y385500D02*
D03*
X422500Y385000D02*
D03*
X392000Y284000D02*
D03*
X455000Y116000D02*
D03*
X274500Y56500D02*
D03*
X342500Y25000D02*
D03*
X312500Y39500D02*
D03*
Y25500D02*
D03*
X328000D02*
D03*
X356500D02*
D03*
X371500D02*
D03*
Y39500D02*
D03*
X406500Y114500D02*
D03*
X415500D02*
D03*
X424000D02*
D03*
X361500Y129000D02*
D03*
Y118500D02*
D03*
X181500Y19500D02*
D03*
X142000Y19000D02*
D03*
X253500Y60500D02*
D03*
X304500Y320500D02*
D03*
Y378500D02*
D03*
Y436500D02*
D03*
X225001Y272799D02*
D03*
Y285799D02*
D03*
Y298299D02*
D03*
X225000Y330799D02*
D03*
Y343800D02*
D03*
Y356300D02*
D03*
X225001Y388799D02*
D03*
Y401799D02*
D03*
Y414299D02*
D03*
X250500Y298500D02*
D03*
Y285500D02*
D03*
Y273000D02*
D03*
X250500Y356501D02*
D03*
Y343501D02*
D03*
Y331001D02*
D03*
X250500Y389000D02*
D03*
Y401500D02*
D03*
Y414500D02*
D03*
X273500Y115500D02*
D03*
X181950Y118950D02*
D03*
X157500Y62500D02*
D03*
X166500D02*
D03*
X213000Y189500D02*
D03*
X197500Y189000D02*
D03*
X186500Y189500D02*
D03*
X170500Y189000D02*
D03*
X159000D02*
D03*
X224000D02*
D03*
X136900Y161450D02*
D03*
Y151450D02*
D03*
Y140950D02*
D03*
D73*
X201950Y81650D02*
D03*
X210450D02*
D03*
X192950D02*
D03*
X201950Y92650D02*
D03*
X210450Y92651D02*
D03*
X192950Y92650D02*
D03*
Y103650D02*
D03*
X210450D02*
D03*
X201950D02*
D03*
M02*
